<svg xmlns="http://www.w3.org/2000/svg" xmlns:xlink="http://www.w3.org/1999/xlink" version="1.1" id="Layer_1" x="0px" y="0px" style="enable-background:new 0 0 960 560;" xml:space="preserve" viewBox="290.06 49.74 343.07 310.28">
<style type="text/css">
	
		.st0{fill:url(#SVGID_1_);stroke:url(#SVGID_00000165923824848413501870000018194975865169499832_);stroke-width:0.25;stroke-miterlimit:10;}
	.st1{fill:url(#SVGID_00000126295402960669034150000007702487168502148790_);stroke:#F7931E;stroke-width:3;stroke-miterlimit:10;}
</style>
<linearGradient id="SVGID_1_" gradientUnits="userSpaceOnUse" x1="290.0991" y1="355.0692" x2="632.9829" y2="355.0692" gradientTransform="matrix(1 0 0 -1 0 560)">
	<stop offset="0" style="stop-color:#D37FFF"/>
	<stop offset="1" style="stop-color:#00003F"/>
</linearGradient>
<linearGradient id="SVGID_00000134957712271578984580000006526762801574572423_" gradientUnits="userSpaceOnUse" x1="289.9741" y1="355.0692" x2="633.1079" y2="355.0692" gradientTransform="matrix(1 0 0 -1 0 560)">
	<stop offset="0" style="stop-color:#FFFFFF"/>
	<stop offset="1" style="stop-color:#000000"/>
</linearGradient>
<path style="fill:url(#SVGID_1_);stroke:url(#SVGID_00000134957712271578984580000006526762801574572423_);stroke-width:0.25;stroke-miterlimit:10;" d="  M294.2,135.7l153.9-84c0.3-0.1,0.5-0.3,0.8-0.4c1.8-0.7,8.6-3.2,9.1,0.7l-4.7,61.1c-0.2,2.4-1.5,4.7-3.5,6l-45.3,30  c-4.9,3.2-4.7,10.4,0.2,13.4l60.3,37c2.5,1.5,5.7,1.6,8.2,0l121.9-72.8c0.3-0.2,0.6-0.4,1-0.5c4.1-1.7,29.4-11.2,35.7,14.9  c0.1,0.6,0.2,1.2,0.2,1.8l1,174c0,4.3-3.4,7.9-7.7,8c-1.4,0-3.1-0.1-5-0.6c-0.8-0.2-1.5-0.5-2.2-0.9l-46.6-26.7c-2.5-1.4-4-4-4-6.8  l-0.4-57.9c0-6-6.4-9.8-11.7-7l-53.9,28.4c0,0-5.8,1.9-4.1,14.5c0,0.3,0.1,0.7,0.1,1l1,83.4c0,1.5-0.4,3.1-1.2,4.4  c-1.1,1.6-3.2,3.2-7.2,3.2c-8,0-51.5-0.5-51.5-0.5s-9,1-8-11c0-5.7-0.5-74.4-0.5-81c0-0.3,0-0.6,0-0.9c0.2-2.2,1-12.9-7-15.6  c-3.6-1.2-27.4-12-32-14c-6.3-2.7-23.2-11.1-26.5-12.7c-0.3-0.2-0.6-0.3-0.9-0.5c-1.4-0.9-6.1-3.3-5.6,8.3  c0.2,4.4,0.4,41.3,0.5,54.1c0,2.7-1.4,5.3-3.7,6.7L307.6,323c-1.1,0.7-2.4,1.1-3.7,1.2c-4.2,0.3-13,0-11.8-7.2  c1.4-8.9-1.3-146.5-1.9-174.2C290,139.9,291.6,137.1,294.2,135.7z"/>
<linearGradient id="SVGID_00000172425761899243366690000013679956146416310714_" gradientUnits="userSpaceOnUse" x1="460.5" y1="452.5" x2="460.5" y2="452.5">
	<stop offset="0" style="stop-color:#CCE0F4"/>
	<stop offset="6.410000e-02" style="stop-color:#C3DCF2"/>
	<stop offset="0.1706" style="stop-color:#A9D2EE"/>
	<stop offset="0.3066" style="stop-color:#80C2E7"/>
	<stop offset="0.4649" style="stop-color:#47ACDE"/>
	<stop offset="0.5674" style="stop-color:#1E9CD7"/>
	<stop offset="0.8652" style="stop-color:#0075BE"/>
	<stop offset="0.9944" style="stop-color:#005B97"/>
</linearGradient>
<path style="fill:url(#SVGID_00000172425761899243366690000013679956146416310714_);stroke:#F7931E;stroke-width:3;stroke-miterlimit:10;" d="  M460.5,452.5"/>
</svg>