<?xml version="1.0" encoding="utf-8"?>
<!-- Generator: Adobe Illustrator 27.5.0, SVG Export Plug-In . SVG Version: 6.00 Build 0)  -->
<svg version="1.1" xmlns="http://www.w3.org/2000/svg" xmlns:xlink="http://www.w3.org/1999/xlink" x="0px" y="0px"
	 viewBox="0 0 500 500" style="enable-background:new 0 0 500 500;" xml:space="preserve">
<g id="Background_Complete">
	<g>
		<rect y="382.398" style="fill:#EBEBEB;" width="500" height="0.25"/>
		<rect x="416.779" y="398.494" style="fill:#EBEBEB;" width="33.122" height="0.25"/>
		<rect x="322.527" y="401.208" style="fill:#EBEBEB;" width="8.693" height="0.25"/>
		<rect x="396.586" y="389.208" style="fill:#EBEBEB;" width="19.192" height="0.25"/>
		<rect x="52.459" y="390.888" style="fill:#EBEBEB;" width="43.193" height="0.25"/>
		<rect x="104.556" y="390.888" style="fill:#EBEBEB;" width="6.333" height="0.25"/>
		<rect x="131.471" y="395.111" style="fill:#EBEBEB;" width="93.676" height="0.25"/>
		<path style="fill:#EBEBEB;" d="M237.014,337.8H43.915c-3.147,0-5.708-2.561-5.708-5.708V60.66c0-3.147,2.561-5.708,5.708-5.708
			h193.099c3.146,0,5.707,2.561,5.707,5.708v271.432C242.721,335.239,240.16,337.8,237.014,337.8z M43.915,55.203
			c-3.01,0-5.458,2.448-5.458,5.458v271.432c0,3.01,2.448,5.458,5.458,5.458h193.099c3.009,0,5.457-2.448,5.457-5.458V60.66
			c0-3.009-2.448-5.458-5.457-5.458H43.915z"/>
		<path style="fill:#EBEBEB;" d="M453.31,337.8H260.212c-3.147,0-5.707-2.561-5.707-5.708V60.66c0-3.147,2.561-5.708,5.707-5.708
			H453.31c3.148,0,5.708,2.561,5.708,5.708v271.432C459.019,335.239,456.458,337.8,453.31,337.8z M260.212,55.203
			c-3.009,0-5.457,2.448-5.457,5.458v271.432c0,3.01,2.448,5.458,5.457,5.458H453.31c3.01,0,5.458-2.448,5.458-5.458V60.66
			c0-3.009-2.448-5.458-5.458-5.458H260.212z"/>
	</g>
	<g>
		<path style="fill:#EBEBEB;" d="M237.132,113.688c-2.058,0-3.872,1.04-4.949,2.623l-13.185-6.852
			c0.249-0.659,0.403-1.365,0.403-2.111s-0.153-1.453-0.403-2.111l13.186-6.852c1.076,1.582,2.891,2.623,4.949,2.623
			c3.305,0,5.983-2.679,5.983-5.984c0-3.305-2.679-5.984-5.983-5.984c-3.305,0-5.983,2.679-5.983,5.984
			c0,0.746,0.153,1.453,0.403,2.111l-13.186,6.852c-1.077-1.582-2.891-2.623-4.949-2.623c-3.305,0-5.984,2.679-5.984,5.984
			c0,3.305,2.679,5.984,5.984,5.984c2.058,0,3.872-1.04,4.949-2.623l13.186,6.852c-0.249,0.659-0.403,1.365-0.403,2.111
			c0,3.305,2.679,5.984,5.983,5.984c3.305,0,5.983-2.679,5.983-5.984C243.115,116.366,240.437,113.688,237.132,113.688z"/>
		<g>
			<g>
				<path style="fill:#EBEBEB;" d="M277.581,383.294h-46.243c-0.407,0-0.737-0.33-0.737-0.737V341.97
					c0-0.407,0.329-0.737,0.737-0.737c0.407,0,0.737,0.329,0.737,0.737v39.85h45.506c0.407,0,0.737,0.33,0.737,0.737
					C278.318,382.964,277.988,383.294,277.581,383.294z"/>
			</g>
			<g>
				<path style="fill:#EBEBEB;" d="M231.495,377.723l-0.314-2.93c0.271-0.03,27.308-3.132,39.186-20.981l2.453,1.633
					C260.168,374.458,232.659,377.599,231.495,377.723z"/>
			</g>
			<g>
				<polygon style="fill:#EBEBEB;" points="273.256,352.161 267.649,354.466 273.271,358.223 				"/>
			</g>
		</g>
		<g>
			<g>
				<path style="fill:#EBEBEB;" d="M429.881,292.648h-25.079c-0.221,0-0.4-0.179-0.4-0.4v-22.011c0-0.221,0.179-0.4,0.4-0.4
					c0.221,0,0.399,0.179,0.399,0.4v21.612h24.679c0.221,0,0.4,0.179,0.4,0.4C430.281,292.469,430.102,292.648,429.881,292.648z"/>
			</g>
			<g>
				<path style="fill:#EBEBEB;" d="M404.888,289.627l-0.17-1.589c0.147-0.016,14.81-1.699,21.252-11.379l1.331,0.886
					C420.438,287.856,405.519,289.559,404.888,289.627z"/>
			</g>
			<g>
				<polygon style="fill:#EBEBEB;" points="427.536,275.764 424.495,277.014 427.544,279.051 				"/>
			</g>
		</g>
		<g>
			<path style="fill:#EBEBEB;" d="M73.524,225.24v15.944c0,1.488,2.617,2.695,5.798,2.695h14.644c1.641,0,2.971-1.33,2.971-2.971
				v-4.003c0-1.182,0.319-2.342,0.924-3.357l0,0c0.605-1.015,0.924-2.175,0.924-3.357v-3.861c0-1.641-1.33-2.971-2.971-2.971H83.997
				v-10.109c0-2.341-0.66-5.492-3.451-5.492l0,0c0,0-0.774,10.243-5.945,14.406C73.73,222.864,73.524,224.122,73.524,225.24z"/>
			<rect x="67.328" y="225.042" style="fill:#EBEBEB;" width="4.951" height="16.757"/>
		</g>
		<g>
			<path style="fill:#EBEBEB;" d="M340.943,163.832v9.928c0,0.927,1.63,1.678,3.611,1.678h9.119c1.022,0,1.85-0.828,1.85-1.85
				v-2.493c0-0.736,0.199-1.458,0.576-2.091l0,0c0.377-0.632,0.576-1.355,0.576-2.091v-2.405c0-1.022-0.828-1.85-1.85-1.85h-7.359
				v-6.295c0-1.458-0.411-3.42-2.149-3.42l0,0c0,0-0.482,6.378-3.702,8.971C341.072,162.353,340.943,163.136,340.943,163.832z"/>
			<rect x="337.085" y="163.709" style="fill:#EBEBEB;" width="3.083" height="10.435"/>
		</g>
		<g>
			
				<ellipse transform="matrix(0.7071 -0.7071 0.7071 0.7071 -26.758 129.143)" style="fill:#EBEBEB;" cx="142.51" cy="96.871" rx="12.977" ry="12.977"/>
			<circle style="fill:#E0E0E0;" cx="142.51" cy="96.871" r="11.306"/>
			<g>
				<path style="fill:#EBEBEB;" d="M143.197,102.042v1.618h-1.185v-1.603c-1.415-0.087-2.788-0.549-3.539-1.2l0.65-1.459
					c0.708,0.577,1.791,0.996,2.889,1.097v-2.889c-1.603-0.391-3.322-0.91-3.322-2.918c0-1.474,1.069-2.759,3.322-2.976v-1.633
					h1.185v1.604c1.069,0.058,2.152,0.375,2.932,0.881l-0.592,1.458c-0.766-0.448-1.575-0.693-2.34-0.78v2.918
					c1.603,0.389,3.351,0.895,3.351,2.903C146.548,100.54,145.464,101.812,143.197,102.042z M142.012,95.86v-2.571
					c-1.025,0.159-1.458,0.679-1.458,1.314C140.553,95.297,141.174,95.614,142.012,95.86z M144.699,99.197
					c0-0.708-0.636-1.04-1.502-1.286v2.557C144.251,100.31,144.699,99.818,144.699,99.197z"/>
			</g>
		</g>
		<g>
			
				<ellipse transform="matrix(0.2298 -0.9732 0.9732 0.2298 188.295 480.5682)" style="fill:#EBEBEB;" cx="397.76" cy="121.323" rx="11.637" ry="11.637"/>
			<circle style="fill:#E0E0E0;" cx="397.76" cy="121.324" r="10.139"/>
			<g>
				<path style="fill:#EBEBEB;" d="M398.375,125.961v1.451h-1.063v-1.438c-1.269-0.078-2.5-0.493-3.173-1.076l0.583-1.308
					c0.635,0.518,1.606,0.893,2.591,0.984v-2.59c-1.438-0.35-2.979-0.816-2.979-2.617c0-1.322,0.959-2.475,2.979-2.669v-1.464h1.063
					v1.439c0.958,0.052,1.93,0.337,2.63,0.79l-0.531,1.308c-0.687-0.402-1.412-0.621-2.098-0.699v2.617
					c1.438,0.349,3.005,0.803,3.005,2.603C401.38,124.614,400.409,125.754,398.375,125.961z M397.313,120.417v-2.306
					c-0.919,0.142-1.308,0.609-1.308,1.178C396.005,119.912,396.561,120.196,397.313,120.417z M399.722,123.409
					c0-0.635-0.57-0.932-1.347-1.153v2.293C399.321,124.407,399.722,123.966,399.722,123.409z"/>
			</g>
		</g>
		<g>
			
				<ellipse transform="matrix(0.2298 -0.9732 0.9732 0.2298 -96.884 563.3483)" style="fill:#EBEBEB;" cx="307.469" cy="342.883" rx="11.637" ry="11.637"/>
			<circle style="fill:#E0E0E0;" cx="307.469" cy="342.883" r="10.139"/>
			<g>
				<path style="fill:#EBEBEB;" d="M308.084,347.521v1.451h-1.063v-1.438c-1.27-0.078-2.5-0.493-3.173-1.076l0.583-1.308
					c0.635,0.518,1.607,0.893,2.591,0.984v-2.591c-1.438-0.35-2.979-0.816-2.979-2.617c0-1.322,0.959-2.474,2.979-2.668v-1.464
					h1.063v1.439c0.958,0.052,1.93,0.336,2.63,0.79l-0.531,1.308c-0.687-0.402-1.412-0.621-2.099-0.699v2.617
					c1.438,0.349,3.005,0.803,3.005,2.603C311.089,346.174,310.118,347.314,308.084,347.521z M307.022,341.977v-2.306
					c-0.919,0.142-1.308,0.609-1.308,1.178C305.714,341.471,306.271,341.756,307.022,341.977z M309.431,344.969
					c0-0.635-0.57-0.932-1.347-1.153v2.293C309.03,345.967,309.431,345.526,309.431,344.969z"/>
			</g>
		</g>
		<g>
			
				<ellipse transform="matrix(0.2298 -0.9732 0.9732 0.2298 -268.312 373.2655)" style="fill:#EBEBEB;" cx="101.665" cy="356.146" rx="11.637" ry="11.637"/>
			<circle style="fill:#E0E0E0;" cx="101.665" cy="356.146" r="10.139"/>
			<g>
				<path style="fill:#EBEBEB;" d="M102.28,360.784v1.451h-1.063v-1.438c-1.269-0.078-2.5-0.493-3.173-1.076l0.583-1.308
					c0.635,0.518,1.606,0.893,2.59,0.984v-2.591c-1.438-0.35-2.979-0.816-2.979-2.617c0-1.322,0.959-2.474,2.979-2.669v-1.464h1.063
					v1.439c0.958,0.052,1.93,0.336,2.63,0.79l-0.531,1.308c-0.687-0.402-1.412-0.621-2.099-0.699v2.617
					c1.438,0.349,3.005,0.803,3.005,2.603C105.285,359.437,104.314,360.577,102.28,360.784z M101.218,355.24v-2.306
					c-0.919,0.142-1.308,0.609-1.308,1.178C99.91,354.734,100.467,355.019,101.218,355.24z M103.627,358.232
					c0-0.635-0.57-0.932-1.347-1.153v2.293C103.226,359.23,103.627,358.789,103.627,358.232z"/>
			</g>
		</g>
		<g>
			<path style="fill:#F5F5F5;" d="M163.785,154.082l8.043-22.095c2.996,1.09,5.739,2.779,8.063,4.963
				c2.323,2.184,4.178,4.817,5.452,7.74L163.785,154.082z"/>
			<path style="fill:#E0E0E0;" d="M163.785,154.082l6.853,22.493c-2.221,0.677-4.531,1.021-6.853,1.021
				c-12.899,0-23.514-10.615-23.514-23.514c0-12.899,10.614-23.514,23.514-23.514c2.706,0,5.391,0.467,7.938,1.38L163.785,154.082z"
				/>
			<path style="fill:#EBEBEB;" d="M163.785,154.082l21.601-9.289c1.262,2.934,1.913,6.095,1.913,9.289
				c0,10.284-6.746,19.43-16.572,22.466L163.785,154.082z"/>
		</g>
		<g>
			<path style="fill:#F5F5F5;" d="M378.291,270.468l4.371-12.008c1.628,0.593,3.119,1.51,4.382,2.697
				c1.263,1.187,2.271,2.618,2.963,4.207L378.291,270.468z"/>
			<path style="fill:#E0E0E0;" d="M378.291,270.468l3.724,12.224c-1.207,0.368-2.462,0.555-3.724,0.555
				c-7.01,0-12.779-5.769-12.779-12.779c0-7.01,5.768-12.779,12.779-12.779c1.47,0,2.93,0.254,4.314,0.75L378.291,270.468z"/>
			<path style="fill:#EBEBEB;" d="M378.291,270.468l11.739-5.048c0.686,1.595,1.039,3.313,1.039,5.048
				c0,5.589-3.666,10.559-9.006,12.209L378.291,270.468z"/>
		</g>
		<path style="fill:#F0F0F0;" d="M335.528,225.089c-2.065-9.962-6.013-19.224-11.412-27.45l9.829-11.872l-21.013-21.015
			l-11.873,9.828c-8.226-5.396-17.488-9.346-27.449-11.411l-1.441-15.303H242.45l-1.442,15.303
			c-9.961,2.066-19.224,6.014-27.449,11.411l-11.873-9.828l-21.014,21.015l9.829,11.873c-5.399,8.225-9.346,17.487-11.412,27.449
			l-15.303,1.443v29.716l15.303,1.443c2.066,9.961,6.013,19.222,11.412,27.448l-9.829,11.873l21.014,21.015l11.873-9.83
			c8.225,5.4,17.488,9.347,27.449,11.413l1.442,15.303h29.718l1.441-15.301c9.961-2.065,19.223-6.013,27.449-11.414l11.873,9.83
			l21.013-21.015l-9.829-11.871c5.399-8.228,9.347-17.488,11.412-27.449l15.302-1.443v-29.716L335.528,225.089z M297.539,241.39
			c0,22.218-18.012,40.23-40.231,40.23c-22.219,0-40.231-18.012-40.231-40.23c0-22.219,18.012-40.231,40.231-40.231
			C279.528,201.158,297.539,219.17,297.539,241.39z"/>
		<path style="fill:#F0F0F0;" d="M430.734,179.545c-0.411-1.981-1.195-3.822-2.269-5.458l1.954-2.36l-4.178-4.178l-2.361,1.954
			c-1.635-1.073-3.477-1.858-5.457-2.269l-0.287-3.042h-5.908l-0.287,3.042c-1.98,0.411-3.822,1.196-5.457,2.269l-2.36-1.954
			l-4.178,4.178l1.954,2.361c-1.073,1.635-1.858,3.477-2.269,5.457l-3.042,0.287v5.908l3.042,0.287
			c0.411,1.98,1.196,3.821,2.269,5.457l-1.954,2.361l4.178,4.178l2.36-1.954c1.635,1.074,3.477,1.858,5.457,2.269l0.287,3.043h5.908
			l0.287-3.042c1.98-0.411,3.822-1.196,5.457-2.269l2.361,1.954l4.178-4.178l-1.954-2.36c1.073-1.636,1.858-3.477,2.269-5.457
			l3.042-0.287v-5.908L430.734,179.545z M423.181,182.786c0,4.417-3.581,7.999-7.999,7.999c-4.418,0-7.999-3.581-7.999-7.999
			c0-4.418,3.581-7.999,7.999-7.999C419.6,174.788,423.181,178.369,423.181,182.786z"/>
		<path style="fill:#F0F0F0;" d="M151.385,278.002c-0.411-1.981-1.195-3.822-2.269-5.458l1.954-2.36l-4.178-4.178l-2.361,1.954
			c-1.635-1.073-3.477-1.858-5.457-2.269l-0.287-3.043h-5.908l-0.287,3.043c-1.98,0.411-3.822,1.196-5.457,2.269l-2.36-1.954
			l-4.178,4.178l1.954,2.361c-1.073,1.635-1.858,3.477-2.269,5.457l-3.042,0.287v5.908l3.042,0.287
			c0.411,1.98,1.196,3.822,2.269,5.457l-1.954,2.361l4.178,4.178l2.36-1.954c1.635,1.074,3.477,1.858,5.457,2.269l0.287,3.042h5.908
			l0.287-3.042c1.98-0.41,3.822-1.195,5.457-2.269l2.361,1.954l4.178-4.178l-1.954-2.36c1.073-1.636,1.858-3.477,2.269-5.457
			l3.042-0.287v-5.908L151.385,278.002z M143.833,281.243c0,4.417-3.581,7.999-7.999,7.999c-4.418,0-7.999-3.581-7.999-7.999
			c0-4.418,3.581-7.999,7.999-7.999C140.252,273.244,143.833,276.825,143.833,281.243z"/>
		<path style="fill:#F0F0F0;" d="M202.861,343.781c-0.411-1.981-1.195-3.822-2.269-5.458l1.954-2.36l-4.178-4.178l-2.361,1.954
			c-1.635-1.073-3.477-1.858-5.457-2.269l-0.287-3.042h-5.908l-0.287,3.042c-1.98,0.411-3.822,1.196-5.457,2.269l-2.36-1.954
			l-4.178,4.178l1.954,2.361c-1.073,1.635-1.858,3.477-2.269,5.457l-3.042,0.287v5.908l3.042,0.287
			c0.411,1.98,1.196,3.822,2.269,5.457l-1.954,2.36l4.178,4.178l2.36-1.954c1.635,1.074,3.477,1.858,5.457,2.269l0.287,3.043h5.908
			l0.287-3.042c1.98-0.41,3.822-1.196,5.457-2.269l2.361,1.954l4.178-4.178l-1.954-2.36c1.073-1.636,1.858-3.477,2.269-5.457
			l3.042-0.287v-5.908L202.861,343.781z M195.309,347.021c0,4.417-3.581,7.999-7.999,7.999c-4.418,0-7.999-3.581-7.999-7.999
			c0-4.417,3.581-7.999,7.999-7.999C191.727,339.023,195.309,342.604,195.309,347.021z"/>
		<path style="fill:#F0F0F0;" d="M96.838,157.572c-0.271-1.305-0.788-2.518-1.495-3.595l1.287-1.555l-2.752-2.752l-1.555,1.287
			c-1.077-0.707-2.29-1.224-3.595-1.494l-0.189-2.004h-3.892l-0.189,2.004c-1.305,0.271-2.518,0.788-3.595,1.494l-1.555-1.287
			l-2.752,2.752l1.287,1.555c-0.707,1.077-1.224,2.29-1.494,3.595l-2.004,0.189v3.892l2.004,0.189
			c0.271,1.304,0.787,2.517,1.494,3.595l-1.287,1.555l2.752,2.752l1.555-1.287c1.077,0.707,2.29,1.224,3.595,1.495l0.189,2.004
			h3.892l0.189-2.004c1.304-0.27,2.518-0.788,3.595-1.495l1.555,1.287l2.752-2.752l-1.287-1.555c0.707-1.077,1.224-2.29,1.495-3.595
			l2.004-0.189v-3.892L96.838,157.572z M91.863,159.707c0,2.91-2.359,5.269-5.269,5.269c-2.91,0-5.269-2.359-5.269-5.269
			c0-2.91,2.359-5.269,5.269-5.269C89.504,154.438,91.863,156.797,91.863,159.707z"/>
		<path style="fill:#F0F0F0;" d="M112.063,143.631c-0.199-0.958-0.578-1.848-1.097-2.638l0.945-1.141l-2.02-2.02l-1.141,0.945
			c-0.791-0.519-1.681-0.898-2.638-1.097l-0.139-1.471h-2.856l-0.139,1.471c-0.957,0.199-1.848,0.578-2.638,1.097l-1.141-0.945
			l-2.02,2.02l0.945,1.141c-0.519,0.79-0.898,1.681-1.097,2.638l-1.471,0.139v2.856l1.471,0.139
			c0.199,0.957,0.578,1.848,1.097,2.638l-0.945,1.141l2.02,2.02l1.141-0.945c0.791,0.519,1.681,0.898,2.638,1.097l0.139,1.471h2.856
			l0.139-1.471c0.957-0.199,1.848-0.578,2.638-1.097l1.141,0.945l2.02-2.02l-0.945-1.141c0.519-0.791,0.898-1.681,1.097-2.638
			l1.471-0.139v-2.856L112.063,143.631z M108.412,145.198c0,2.136-1.731,3.867-3.867,3.867c-2.136,0-3.867-1.731-3.867-3.867
			c0-2.135,1.731-3.867,3.867-3.867C106.681,141.331,108.412,143.062,108.412,145.198z"/>
		<path style="fill:#EBEBEB;" d="M371.702,378.099c-16.427-0.094-29.779-13.507-29.779-29.901c0-6.858,2.38-13.557,6.702-18.861
			c5.675-6.979,14.086-11.004,23.077-11.042l0.24-0.001c8.995,0.038,17.414,4.063,23.09,11.043
			c4.322,5.305,6.702,12.003,6.702,18.861c0,16.395-13.338,29.808-29.734,29.901l-0.17,0.003L371.702,378.099z M373.003,375.758
			l1.233-0.296c4.271-1.026,8.103-4.688,10.789-10.308l0.539-1.129l-1.219-0.277c-3.178-0.725-6.646-1.155-10.308-1.279
			l-1.034-0.035V375.758z M369.617,362.469c-3.662,0.124-7.129,0.555-10.307,1.279l-1.219,0.277l0.539,1.128
			c2.686,5.621,6.517,9.282,10.788,10.309l1.233,0.296v-13.324L369.617,362.469z M387.425,365.521
			c-0.803,1.763-1.734,3.397-2.768,4.857l1.332,1.434c1.962-1.181,3.774-2.6,5.384-4.219l1.002-1.007l-1.286-0.604
			c-0.749-0.351-1.562-0.684-2.418-0.989l-0.866-0.31L387.425,365.521z M354.983,364.993c-0.851,0.304-1.664,0.637-2.417,0.989
			l-1.287,0.603l1.002,1.008c1.607,1.617,3.419,3.036,5.383,4.219l1.332-1.434c-1.034-1.462-1.965-3.096-2.768-4.858l-0.381-0.835
			L354.983,364.993z M344.368,350.454c0.393,4.881,2.097,9.578,4.927,13.586l0.506,0.716l0.776-0.407
			c1.057-0.556,2.243-1.071,3.523-1.533l0.906-0.326l-0.293-0.918c-1.125-3.524-1.787-7.308-1.965-11.242l-0.043-0.955h-8.424
			L344.368,350.454z M390.908,350.328c-0.18,3.936-0.841,7.72-1.966,11.244l-0.293,0.918l0.908,0.327
			c1.279,0.46,2.464,0.975,3.523,1.53l0.775,0.406l0.506-0.715c2.831-4.006,4.535-8.703,4.928-13.585l0.087-1.08h-8.424
			L390.908,350.328z M355.106,350.424c0.183,3.694,0.809,7.232,1.859,10.517l0.284,0.887l0.905-0.22
			c3.487-0.848,7.473-1.364,11.528-1.495l0.968-0.03v-10.708h-15.597L355.106,350.424z M373.003,360.082l0.968,0.03
			c4.055,0.131,8.042,0.648,11.529,1.495l0.904,0.22l0.284-0.887c1.05-3.281,1.676-6.819,1.859-10.517l0.052-1.05h-15.597V360.082z
			 M393.079,332.048c-1.055,0.554-2.241,1.069-3.523,1.532l-0.907,0.326l0.293,0.919c1.125,3.522,1.787,7.306,1.966,11.242
			l0.043,0.954h8.419l-0.09-1.083c-0.408-4.886-2.108-9.582-4.918-13.581l-0.505-0.719L393.079,332.048z M385.5,334.788
			c-3.538,0.859-7.417,1.362-11.529,1.495l-0.968,0.03v10.708h15.597l-0.052-1.05c-0.183-3.691-0.809-7.23-1.86-10.517l-0.284-0.887
			L385.5,334.788z M356.966,335.456c-1.051,3.283-1.677,6.821-1.86,10.516l-0.052,1.05h15.597v-10.708l-0.968-0.03
			c-4.058-0.131-8.044-0.647-11.528-1.494l-0.905-0.22L356.966,335.456z M349.293,332.357c-2.81,4.001-4.51,8.697-4.917,13.581
			l-0.09,1.083h8.418l0.043-0.955c0.179-3.935,0.84-7.718,1.965-11.241l0.293-0.919l-0.906-0.326
			c-1.283-0.463-2.468-0.978-3.523-1.532l-0.778-0.409L349.293,332.357z M373.003,333.964l1.034-0.036
			c3.664-0.125,7.132-0.556,10.308-1.28l1.219-0.277l-0.539-1.129c-2.686-5.62-6.517-9.281-10.788-10.309l-1.234-0.296V333.964z
			 M369.417,320.932c-4.271,1.027-8.102,4.688-10.788,10.31l-0.539,1.128l1.219,0.277c3.171,0.724,6.639,1.154,10.308,1.28
			l1.034,0.036v-13.327L369.417,320.932z M357.713,324.517c-1.977,1.182-3.81,2.622-5.447,4.28l-0.995,1.008l1.281,0.601
			c0.757,0.355,1.575,0.69,2.43,0.996l0.866,0.31l0.381-0.836c0.815-1.79,1.761-3.445,2.811-4.92L357.713,324.517z M384.613,325.955
			c1.051,1.477,1.997,3.132,2.811,4.92l0.381,0.835l0.865-0.308c0.853-0.304,1.671-0.639,2.433-0.996l1.282-0.601l-0.995-1.007
			c-1.641-1.663-3.475-3.104-5.45-4.282L384.613,325.955z"/>
		<path style="fill:#EBEBEB;" d="M294.41,141.291c-9.733-0.056-17.644-8.003-17.644-17.717c0-4.064,1.41-8.032,3.971-11.175
			c3.363-4.135,8.346-6.52,13.673-6.542l0.142-0.001c5.329,0.022,10.317,2.407,13.681,6.543c2.561,3.143,3.971,7.112,3.971,11.175
			c0,9.714-7.903,17.661-17.617,17.717l-0.101,0.002L294.41,141.291z M295.181,139.903l0.731-0.175
			c2.531-0.608,4.801-2.777,6.392-6.107l0.319-0.669l-0.722-0.164c-1.883-0.429-3.938-0.684-6.107-0.758l-0.613-0.021V139.903z
			 M293.174,132.029c-2.169,0.074-4.224,0.329-6.107,0.758l-0.722,0.164l0.319,0.668c1.591,3.33,3.861,5.5,6.392,6.108l0.731,0.175
			v-7.895L293.174,132.029z M303.725,133.838c-0.476,1.044-1.028,2.013-1.64,2.878l0.789,0.85c1.163-0.7,2.236-1.541,3.19-2.5
			l0.594-0.596l-0.762-0.358c-0.444-0.208-0.926-0.405-1.432-0.586l-0.513-0.183L303.725,133.838z M284.504,133.525
			c-0.504,0.18-0.986,0.377-1.432,0.586l-0.762,0.357l0.594,0.597c0.952,0.958,2.025,1.799,3.189,2.5l0.789-0.849
			c-0.613-0.866-1.164-1.834-1.64-2.878l-0.226-0.495L284.504,133.525z M278.214,124.911c0.233,2.892,1.242,5.675,2.919,8.05
			l0.3,0.424l0.46-0.241c0.626-0.329,1.329-0.635,2.087-0.908l0.537-0.193l-0.174-0.544c-0.667-2.088-1.059-4.33-1.164-6.661
			l-0.026-0.566h-4.991L278.214,124.911z M305.789,124.836c-0.106,2.332-0.498,4.574-1.165,6.662l-0.174,0.544l0.538,0.194
			c0.758,0.273,1.46,0.577,2.087,0.907l0.459,0.241l0.3-0.423c1.677-2.374,2.687-5.157,2.92-8.049l0.052-0.64h-4.991
			L305.789,124.836z M284.577,124.893c0.108,2.189,0.479,4.285,1.102,6.231l0.168,0.525l0.536-0.13
			c2.066-0.502,4.428-0.808,6.831-0.886l0.573-0.018v-6.344h-9.241L284.577,124.893z M295.181,130.615l0.573,0.018
			c2.402,0.077,4.765,0.384,6.831,0.886l0.536,0.13l0.168-0.525c0.622-1.944,0.993-4.04,1.102-6.231l0.031-0.622h-9.241V130.615z
			 M307.075,114.005c-0.625,0.328-1.328,0.634-2.088,0.908l-0.537,0.193l0.174,0.544c0.667,2.087,1.059,4.329,1.165,6.661
			l0.026,0.565h4.988l-0.053-0.642c-0.242-2.895-1.249-5.677-2.914-8.047l-0.299-0.426L307.075,114.005z M302.585,115.629
			c-2.096,0.509-4.395,0.807-6.831,0.886l-0.573,0.018v6.344h9.241l-0.031-0.622c-0.108-2.187-0.479-4.284-1.102-6.231l-0.168-0.525
			L302.585,115.629z M285.679,116.024c-0.623,1.945-0.994,4.042-1.102,6.231l-0.031,0.622h9.241v-6.344l-0.573-0.018
			c-2.404-0.077-4.766-0.384-6.831-0.885l-0.536-0.13L285.679,116.024z M281.132,114.188c-1.665,2.371-2.672,5.153-2.913,8.047
			l-0.053,0.642h4.988l0.026-0.566c0.106-2.332,0.498-4.573,1.164-6.66l0.174-0.544l-0.537-0.193
			c-0.76-0.274-1.462-0.58-2.087-0.908l-0.461-0.243L281.132,114.188z M295.181,115.14l0.613-0.021
			c2.171-0.074,4.226-0.329,6.107-0.759l0.722-0.164l-0.319-0.669c-1.591-3.33-3.861-5.499-6.392-6.108l-0.731-0.175V115.14z
			 M293.056,107.419c-2.531,0.609-4.801,2.778-6.392,6.108l-0.319,0.668l0.722,0.164c1.879,0.429,3.933,0.684,6.107,0.759
			l0.613,0.021v-7.896L293.056,107.419z M286.121,109.543c-1.171,0.7-2.257,1.554-3.227,2.536l-0.589,0.597l0.759,0.356
			c0.448,0.211,0.933,0.409,1.44,0.59l0.513,0.183l0.226-0.495c0.483-1.061,1.043-2.041,1.665-2.915L286.121,109.543z
			 M302.06,110.395c0.623,0.875,1.183,1.856,1.666,2.915l0.226,0.495l0.512-0.182c0.505-0.18,0.99-0.378,1.441-0.59l0.759-0.356
			l-0.589-0.597c-0.972-0.985-2.059-1.839-3.229-2.537L302.06,110.395z"/>
	</g>
</g>
<g id="Background_Simple" style="display:none;">
	<g style="display:inline;">
		<path style="fill:#407BFF;" d="M91.113,125.341c27.919-59.449,127.059-51.062,165.317-9.255
			c38.258,41.806,50.696,68.599,85.208,52.983c34.512-15.616,78.518-11.44,81.042,38.164s-37.913,108.263-102.09,125.615
			c-64.177,17.352-64.161,78.759-149.1,66.368c-46.31-6.756-47.365-56.86-40.825-98.301
			C137.206,259.475,58.735,194.285,91.113,125.341z"/>
		<path style="opacity:0.9;fill:#FFFFFF;" d="M91.113,125.341c27.919-59.449,127.059-51.062,165.317-9.255
			c38.258,41.806,50.696,68.599,85.208,52.983c34.512-15.616,78.518-11.44,81.042,38.164s-37.913,108.263-102.09,125.615
			c-64.177,17.352-64.161,78.759-149.1,66.368c-46.31-6.756-47.365-56.86-40.825-98.301
			C137.206,259.475,58.735,194.285,91.113,125.341z"/>
	</g>
</g>
<g id="Shadow_1_">
	<ellipse id="_x3C_Path_x3E__359_" style="fill:#F5F5F5;" cx="250" cy="416.238" rx="193.889" ry="11.323"/>
</g>
<g id="Board">
	<g>
		<g>
			<polygon style="fill:#263238;" points="343.289,309.835 343.289,165.871 156.195,165.871 156.195,309.835 182.575,309.835 
				182.575,406.577 175.457,409.112 175.457,411.732 197.925,411.732 197.925,409.112 190.808,406.577 190.808,309.835 
				312.583,309.835 312.583,406.577 305.466,409.112 305.466,411.732 327.934,411.732 327.934,409.112 320.816,406.577 
				320.816,309.835 			"/>
			<polygon style="opacity:0.7;fill:#FFFFFF;enable-background:new    ;" points="343.289,309.835 343.289,165.871 156.195,165.871 
				156.195,309.835 182.575,309.835 182.575,406.577 175.457,409.112 175.457,411.732 197.925,411.732 197.925,409.112 
				190.808,406.577 190.808,309.835 312.583,309.835 312.583,406.577 305.466,409.112 305.466,411.732 327.934,411.732 
				327.934,409.112 320.816,406.577 320.816,309.835 			"/>
			<rect x="158.658" y="167.87" style="fill:#407BFF;" width="182.169" height="137.368"/>
			<rect x="158.658" y="167.87" style="opacity:0.9;fill:#FFFFFF;enable-background:new    ;" width="182.169" height="137.368"/>
		</g>
		<g>
			<rect x="284.681" y="250.981" style="fill:#263238;" width="5.745" height="5.745"/>
			<rect x="284.681" y="267.488" style="fill:#263238;" width="5.745" height="5.745"/>
			<rect x="284.681" y="283.996" style="fill:#407BFF;" width="5.745" height="5.745"/>
			<rect x="284.681" y="267.488" style="opacity:0.7;fill:#FFFFFF;enable-background:new    ;" width="5.745" height="5.745"/>
			<g>
				<path style="opacity:0.1;" d="M271.659,191.094c0.138,0,0.25-0.112,0.25-0.25s-0.112-0.25-0.25-0.25h-2.303v-9.385h2.303
					c0.138,0,0.25-0.112,0.25-0.25s-0.112-0.25-0.25-0.25h-2.303v-2.574c0-0.138-0.112-0.25-0.25-0.25
					c-0.138,0-0.25,0.112-0.25,0.25v2.574h-10.224v-2.574c0-0.138-0.112-0.25-0.25-0.25c-0.138,0-0.25,0.112-0.25,0.25v2.574
					h-10.223v-2.574c0-0.138-0.112-0.25-0.25-0.25c-0.138,0-0.25,0.112-0.25,0.25v2.574h-10.224v-2.574
					c0-0.138-0.112-0.25-0.25-0.25s-0.25,0.112-0.25,0.25v2.574h-10.223v-2.574c0-0.138-0.112-0.25-0.25-0.25s-0.25,0.112-0.25,0.25
					v2.574h-10.224v-2.574c0-0.138-0.112-0.25-0.25-0.25c-0.138,0-0.25,0.112-0.25,0.25v2.574h-10.223v-2.574
					c0-0.138-0.112-0.25-0.25-0.25s-0.25,0.112-0.25,0.25v2.574h-10.224v-2.574c0-0.138-0.112-0.25-0.25-0.25
					c-0.138,0-0.25,0.112-0.25,0.25v2.574h-10.223v-2.574c0-0.138-0.112-0.25-0.25-0.25s-0.25,0.112-0.25,0.25v2.574h-10.089v0.5
					h10.089v9.385h-10.089v0.5h10.089v9.385h-10.089v0.5h10.089v9.385h-10.089v0.5h10.089v9.385h-10.089v0.5h10.089v10.085
					c0,0.138,0.112,0.25,0.25,0.25s0.25-0.112,0.25-0.25v-10.085h10.223v10.085c0,0.138,0.112,0.25,0.25,0.25
					c0.138,0,0.25-0.112,0.25-0.25v-10.085h10.224v10.085c0,0.138,0.112,0.25,0.25,0.25s0.25-0.112,0.25-0.25v-10.085h10.223v10.085
					c0,0.138,0.112,0.25,0.25,0.25c0.138,0,0.25-0.112,0.25-0.25v-10.085h10.224v10.085c0,0.138,0.112,0.25,0.25,0.25
					s0.25-0.112,0.25-0.25v-10.085h10.223v10.085c0,0.138,0.112,0.25,0.25,0.25s0.25-0.112,0.25-0.25v-10.085h10.224v10.085
					c0,0.138,0.112,0.25,0.25,0.25c0.138,0,0.25-0.112,0.25-0.25v-10.085h10.223v10.085c0,0.138,0.112,0.25,0.25,0.25
					c0.138,0,0.25-0.112,0.25-0.25v-10.085h10.224v10.085c0,0.138,0.112,0.25,0.25,0.25c0.138,0,0.25-0.112,0.25-0.25v-10.085h2.303
					c0.138,0,0.25-0.112,0.25-0.25s-0.112-0.25-0.25-0.25h-2.303v-9.385h2.303c0.138,0,0.25-0.112,0.25-0.25s-0.112-0.25-0.25-0.25
					h-2.303v-9.385h2.303c0.138,0,0.25-0.112,0.25-0.25c0-0.138-0.112-0.25-0.25-0.25h-2.303v-9.385H271.659z M193.792,220.249
					h-10.223v-9.385h10.223V220.249z M193.792,210.364h-10.223v-9.385h10.223V210.364z M193.792,200.479h-10.223v-9.385h10.223
					V200.479z M193.792,190.594h-10.223v-9.385h10.223V190.594z M204.515,220.249h-10.224v-9.385h10.224V220.249z M204.515,210.364
					h-10.224v-9.385h10.224V210.364z M204.515,200.479h-10.224v-9.385h10.224V200.479z M204.515,190.594h-10.224v-9.385h10.224
					V190.594z M215.238,220.249h-10.223v-9.385h10.223V220.249z M215.238,210.364h-10.223v-9.385h10.223V210.364z M215.238,200.479
					h-10.223v-9.385h10.223V200.479z M215.238,190.594h-10.223v-9.385h10.223V190.594z M225.962,220.249h-10.224v-9.385h10.224
					V220.249z M225.962,210.364h-10.224v-9.385h10.224V210.364z M225.962,200.479h-10.224v-9.385h10.224V200.479z M225.962,190.594
					h-10.224v-9.385h10.224V190.594z M236.685,220.249h-10.223v-9.385h10.223V220.249z M236.685,210.364h-10.223v-9.385h10.223
					V210.364z M236.685,200.479h-10.223v-9.385h10.223V200.479z M236.685,190.594h-10.223v-9.385h10.223V190.594z M247.409,220.249
					h-10.224v-9.385h10.224V220.249z M247.409,210.364h-10.224v-9.385h10.224V210.364z M247.409,200.479h-10.224v-9.385h10.224
					V200.479z M247.409,190.594h-10.224v-9.385h10.224V190.594z M258.132,220.249h-10.223v-9.385h10.223V220.249z M258.132,210.364
					h-10.223v-9.385h10.223V210.364z M258.132,200.479h-10.223v-9.385h10.223V200.479z M258.132,190.594h-10.223v-9.385h10.223
					V190.594z M268.855,220.249h-10.224v-9.385h10.224V220.249z M268.855,210.364h-10.224v-9.385h10.224V210.364z M268.855,200.479
					h-10.224v-9.385h10.224V200.479z M268.855,190.594h-10.224v-9.385h10.224V190.594z"/>
				<g>
					<rect x="183.022" y="215.282" style="fill:#407BFF;" width="6.213" height="15.278"/>
					<rect x="187.277" y="215.282" style="opacity:0.2;fill:#FFFFFF;enable-background:new    ;" width="1.958" height="15.278"/>
				</g>
				<g>
					<rect x="199.648" y="208.762" style="fill:#407BFF;" width="6.213" height="21.798"/>
					<rect x="203.903" y="208.762" style="opacity:0.2;fill:#FFFFFF;enable-background:new    ;" width="1.957" height="21.798"/>
				</g>
				<g>
					<rect x="216.273" y="212.405" style="fill:#407BFF;" width="6.213" height="18.155"/>
					<rect x="220.529" y="212.405" style="opacity:0.2;fill:#FFFFFF;enable-background:new    ;" width="1.957" height="18.155"/>
				</g>
				<g>
					<rect x="232.899" y="205.392" style="fill:#407BFF;" width="6.213" height="25.168"/>
					<rect x="237.154" y="205.392" style="opacity:0.2;fill:#FFFFFF;enable-background:new    ;" width="1.958" height="25.168"/>
				</g>
				<g>
					<rect x="249.525" y="192.553" style="fill:#407BFF;" width="6.213" height="38.007"/>
					<rect x="253.78" y="192.553" style="opacity:0.2;fill:#FFFFFF;enable-background:new    ;" width="1.957" height="38.007"/>
				</g>
				<g>
					<path style="fill:#263238;" d="M275.935,231.334H173.048c-0.276,0-0.5-0.224-0.5-0.5v-54.379c0-0.276,0.224-0.5,0.5-0.5
						c0.276,0,0.5,0.224,0.5,0.5v53.879h102.387c0.276,0,0.5,0.224,0.5,0.5C276.435,231.111,276.211,231.334,275.935,231.334z"/>
				</g>
				<polyline style="fill:none;stroke:#263238;stroke-linecap:round;stroke-linejoin:round;stroke-miterlimit:10;" points="
					175.703,217.482 186.128,211.282 201.879,204.762 219.38,208.405 235.992,201.392 261.505,181.902 				"/>
				<g style="opacity:0.5;">
					<path style="fill:#FFFFFF;" d="M275.935,231.334H173.048c-0.276,0-0.5-0.224-0.5-0.5v-54.379c0-0.276,0.224-0.5,0.5-0.5
						c0.276,0,0.5,0.224,0.5,0.5v53.879h102.387c0.276,0,0.5,0.224,0.5,0.5C276.435,231.111,276.211,231.334,275.935,231.334z"/>
				</g>
				<polygon style="fill:#263238;" points="263.313,180.491 258.474,182.235 260.377,184.715 				"/>
			</g>
			<g>
				<path style="fill:#407BFF;" d="M304.41,205.277l6.213,20.394c-2.014,0.614-4.108,0.926-6.213,0.926
					c-11.695,0-21.319-9.624-21.319-21.319c0-11.695,9.624-21.319,21.319-21.319c2.453,0,4.888,0.423,7.197,1.251L304.41,205.277z"
					/>
				<path style="fill:#407BFF;" d="M304.41,205.277l7.292-20.033c2.716,0.989,5.204,2.52,7.31,4.5
					c2.106,1.98,3.788,4.368,4.943,7.018L304.41,205.277z"/>
				<path style="fill:#407BFF;" d="M304.41,205.277l19.585-8.422c1.144,2.66,1.734,5.526,1.734,8.422
					c0,9.324-6.117,17.616-15.025,20.369L304.41,205.277z"/>
				<path style="opacity:0.7;fill:#FFFFFF;enable-background:new    ;" d="M304.41,205.277l6.213,20.394
					c-2.014,0.614-4.108,0.926-6.213,0.926c-11.695,0-21.319-9.624-21.319-21.319c0-11.695,9.624-21.319,21.319-21.319
					c2.453,0,4.888,0.423,7.197,1.251L304.41,205.277z"/>
				<path style="opacity:0.4;fill:#FFFFFF;enable-background:new    ;" d="M304.41,205.277l19.585-8.422
					c1.144,2.66,1.734,5.526,1.734,8.422c0,9.324-6.117,17.616-15.025,20.369L304.41,205.277z"/>
			</g>
			<g>
				<path style="opacity:0.1;" d="M271.659,257.099c0.138,0,0.25-0.112,0.25-0.25c0-0.138-0.112-0.25-0.25-0.25h-2.303v-9.385h2.303
					c0.138,0,0.25-0.112,0.25-0.25s-0.112-0.25-0.25-0.25h-2.303v-2.574c0-0.138-0.112-0.25-0.25-0.25
					c-0.138,0-0.25,0.112-0.25,0.25v2.574h-10.224v-2.574c0-0.138-0.112-0.25-0.25-0.25c-0.138,0-0.25,0.112-0.25,0.25v2.574
					h-10.223v-2.574c0-0.138-0.112-0.25-0.25-0.25c-0.138,0-0.25,0.112-0.25,0.25v2.574h-10.224v-2.574
					c0-0.138-0.112-0.25-0.25-0.25s-0.25,0.112-0.25,0.25v2.574h-10.223v-2.574c0-0.138-0.112-0.25-0.25-0.25s-0.25,0.112-0.25,0.25
					v2.574h-10.224v-2.574c0-0.138-0.112-0.25-0.25-0.25c-0.138,0-0.25,0.112-0.25,0.25v2.574h-10.223v-2.574
					c0-0.138-0.112-0.25-0.25-0.25s-0.25,0.112-0.25,0.25v2.574h-10.224v-2.574c0-0.138-0.112-0.25-0.25-0.25
					c-0.138,0-0.25,0.112-0.25,0.25v2.574h-10.223v-2.574c0-0.138-0.112-0.25-0.25-0.25s-0.25,0.112-0.25,0.25v2.574h-10.089v0.5
					h10.089v9.385h-10.089v0.5h10.089v9.385h-10.089v0.5h10.089v9.385h-10.089v0.5h10.089v9.385h-10.089v0.5h10.089v10.086
					c0,0.138,0.112,0.25,0.25,0.25s0.25-0.112,0.25-0.25v-10.086h10.223v10.086c0,0.138,0.112,0.25,0.25,0.25
					c0.138,0,0.25-0.112,0.25-0.25v-10.086h10.224v10.086c0,0.138,0.112,0.25,0.25,0.25s0.25-0.112,0.25-0.25v-10.086h10.223v10.086
					c0,0.138,0.112,0.25,0.25,0.25c0.138,0,0.25-0.112,0.25-0.25v-10.086h10.224v10.086c0,0.138,0.112,0.25,0.25,0.25
					s0.25-0.112,0.25-0.25v-10.086h10.223v10.086c0,0.138,0.112,0.25,0.25,0.25s0.25-0.112,0.25-0.25v-10.086h10.224v10.086
					c0,0.138,0.112,0.25,0.25,0.25c0.138,0,0.25-0.112,0.25-0.25v-10.086h10.223v10.086c0,0.138,0.112,0.25,0.25,0.25
					c0.138,0,0.25-0.112,0.25-0.25v-10.086h10.224v10.086c0,0.138,0.112,0.25,0.25,0.25c0.138,0,0.25-0.112,0.25-0.25v-10.086h2.303
					c0.138,0,0.25-0.112,0.25-0.25c0-0.138-0.112-0.25-0.25-0.25h-2.303v-9.385h2.303c0.138,0,0.25-0.112,0.25-0.25
					c0-0.138-0.112-0.25-0.25-0.25h-2.303v-9.385h2.303c0.138,0,0.25-0.112,0.25-0.25c0-0.138-0.112-0.25-0.25-0.25h-2.303v-9.385
					H271.659z M193.792,286.253h-10.223v-9.385h10.223V286.253z M193.792,276.368h-10.223v-9.385h10.223V276.368z M193.792,266.483
					h-10.223v-9.385h10.223V266.483z M193.792,256.599h-10.223v-9.385h10.223V256.599z M204.515,286.253h-10.224v-9.385h10.224
					V286.253z M204.515,276.368h-10.224v-9.385h10.224V276.368z M204.515,266.483h-10.224v-9.385h10.224V266.483z M204.515,256.599
					h-10.224v-9.385h10.224V256.599z M215.238,286.253h-10.223v-9.385h10.223V286.253z M215.238,276.368h-10.223v-9.385h10.223
					V276.368z M215.238,266.483h-10.223v-9.385h10.223V266.483z M215.238,256.599h-10.223v-9.385h10.223V256.599z M225.962,286.253
					h-10.224v-9.385h10.224V286.253z M225.962,276.368h-10.224v-9.385h10.224V276.368z M225.962,266.483h-10.224v-9.385h10.224
					V266.483z M225.962,256.599h-10.224v-9.385h10.224V256.599z M236.685,286.253h-10.223v-9.385h10.223V286.253z M236.685,276.368
					h-10.223v-9.385h10.223V276.368z M236.685,266.483h-10.223v-9.385h10.223V266.483z M236.685,256.599h-10.223v-9.385h10.223
					V256.599z M247.409,286.253h-10.224v-9.385h10.224V286.253z M247.409,276.368h-10.224v-9.385h10.224V276.368z M247.409,266.483
					h-10.224v-9.385h10.224V266.483z M247.409,256.599h-10.224v-9.385h10.224V256.599z M258.132,286.253h-10.223v-9.385h10.223
					V286.253z M258.132,276.368h-10.223v-9.385h10.223V276.368z M258.132,266.483h-10.223v-9.385h10.223V266.483z M258.132,256.599
					h-10.223v-9.385h10.223V256.599z M268.855,286.253h-10.224v-9.385h10.224V286.253z M268.855,276.368h-10.224v-9.385h10.224
					V276.368z M268.855,266.483h-10.224v-9.385h10.224V266.483z M268.855,256.599h-10.224v-9.385h10.224V256.599z"/>
				<path style="fill:#407BFF;" d="M172.979,286.253c0,0,6.528-9.885,10.589-9.885c4.279,0,6.55,5.513,10.223,5.513
					c3.673,0,6.285-12.129,10.724-12.129c4.439,0,6.773,15.078,11.223,15.078c4.45,0,8.681-18.347,13.386-18.347
					c4.705,0,5.191,5.767,7.561,5.767c2.822,0,4.95-15.652,11.224-15.652c5.982,0,6.018,9.885,10.723,9.885
					c4.705,0,3.721-15.503,10.724-15.503v46.108h-96.307L172.979,286.253z"/>
				<path style="opacity:0.4;fill:#FFFFFF;enable-background:new    ;" d="M172.979,286.253c0,0,6.528-9.885,10.589-9.885
					c4.279,0,6.55,5.513,10.223,5.513c3.673,0,6.285-12.129,10.724-12.129c4.439,0,6.773,15.078,11.223,15.078
					c4.45,0,8.681-18.347,13.386-18.347c4.705,0,5.191,5.767,7.561,5.767c2.822,0,4.95-15.652,11.224-15.652
					c5.982,0,6.018,9.885,10.723,9.885c4.705,0,3.721-15.503,10.724-15.503v46.108h-96.307L172.979,286.253z"/>
				<path style="fill:none;stroke:#407BFF;stroke-miterlimit:10;" d="M172.979,286.253c0,0,6.528-9.885,10.589-9.885
					c4.279,0,6.55,5.513,10.223,5.513c3.673,0,6.285-12.129,10.724-12.129c4.439,0,6.773,15.078,11.223,15.078
					c4.45,0,8.681-18.347,13.386-18.347c4.705,0,5.191,5.767,7.561,5.767c2.822,0,4.95-15.652,11.224-15.652
					c5.982,0,6.018,9.885,10.723,9.885c4.705,0,3.721-15.503,10.724-15.503"/>
				<path style="fill:none;stroke:#263238;stroke-miterlimit:10;" d="M172.979,287.554c1.3-1.422,2.665-2.791,4.083-4.095
					c1.697-1.562,3.779-3.823,6.232-4.113c1.779-0.21,3.098,1.023,4.01,2.407c1.333,2.022,2.546,6.937,5.42,7.284
					c2.632,0.318,4.874-4.539,5.989-6.365c1.839-3.012,3.523-6.118,5.477-9.059c0.974-1.465,2.012-2.89,3.166-4.219
					c1.98-2.28,4.644-4.113,7.11-1.348c2.766,3.102,3.538,7.356,5.672,10.841c0.399,0.651,0.864,1.305,1.545,1.652
					c1.216,0.618,2.48-0.333,3.29-1.18c1.857-1.941,3.229-4.221,4.646-6.485c1.027-1.641,2.392-4.583,4.671-4.642
					c2.559-0.066,3.942,5.406,6.469,4.457c0.485-0.182,0.86-0.571,1.196-0.966c2.364-2.783,3.566-6.299,5.13-9.544
					c0.226-0.469,0.457-0.946,0.807-1.332c2.92-3.221,5.344,3.354,6.185,5.114c1.389,2.907,2.872,6.345,6.708,4.493
					c2.951-1.425,5.181-2.706,8.57-2.706"/>
				<path style="opacity:0.7;fill:none;stroke:#FFFFFF;stroke-miterlimit:10;enable-background:new    ;" d="M172.979,287.554
					c1.3-1.422,2.665-2.791,4.083-4.095c1.697-1.562,3.779-3.823,6.232-4.113c1.779-0.21,3.098,1.023,4.01,2.407
					c1.333,2.022,2.546,6.937,5.42,7.284c2.632,0.318,4.874-4.539,5.989-6.365c1.839-3.012,3.523-6.118,5.477-9.059
					c0.974-1.465,2.012-2.89,3.166-4.219c1.98-2.28,4.644-4.113,7.11-1.348c2.766,3.102,3.538,7.356,5.672,10.841
					c0.399,0.651,0.864,1.305,1.545,1.652c1.216,0.618,2.48-0.333,3.29-1.18c1.857-1.941,3.229-4.221,4.646-6.485
					c1.027-1.641,2.392-4.583,4.671-4.642c2.559-0.066,3.942,5.406,6.469,4.457c0.485-0.182,0.86-0.571,1.196-0.966
					c2.364-2.783,3.566-6.299,5.13-9.544c0.226-0.469,0.457-0.946,0.807-1.332c2.92-3.221,5.344,3.354,6.185,5.114
					c1.389,2.907,2.872,6.345,6.708,4.493c2.951-1.425,5.181-2.706,8.57-2.706"/>
				<path style="fill:none;stroke:#263238;stroke-miterlimit:10;" d="M172.979,286.253c0,0,5.263-4.692,10.023-4.692
					c4.76,0,6.52,2.346,10.789,2.346c4.269,0,7.306-9.872,10.724-9.872s6.448,7.526,10.723,7.526
					c4.275,0,10.758-11.912,14.652-11.912c3.894,0,5.106,3.607,7.064,3.607c1.957,0,6.164-19.181,10.954-19.181
					c4.79,0,7.854,14.756,11.343,14.756c3.489,0,5.568-9.362,10.103-9.277"/>
				<g>
					<path style="fill:#263238;" d="M275.935,297.338H173.048c-0.276,0-0.5-0.224-0.5-0.5V242.46c0-0.276,0.224-0.5,0.5-0.5
						c0.276,0,0.5,0.224,0.5,0.5v53.879h102.387c0.276,0,0.5,0.224,0.5,0.5S276.211,297.338,275.935,297.338z"/>
				</g>
				<g style="opacity:0.5;">
					<path style="fill:#FFFFFF;" d="M275.935,297.338H173.048c-0.276,0-0.5-0.224-0.5-0.5V242.46c0-0.276,0.224-0.5,0.5-0.5
						c0.276,0,0.5,0.224,0.5,0.5v53.879h102.387c0.276,0,0.5,0.224,0.5,0.5S276.211,297.338,275.935,297.338z"/>
				</g>
			</g>
			<g style="opacity:0.3;">
				<g>
					<rect x="298.468" y="250.481" width="24.638" height="1"/>
				</g>
				<g>
					<rect x="298.468" y="253.317" width="24.638" height="1"/>
				</g>
				<g>
					<rect x="298.468" y="256.153" width="24.638" height="1"/>
				</g>
				<g>
					<rect x="298.468" y="258.99" width="14.638" height="1"/>
				</g>
			</g>
			<g style="opacity:0.3;">
				<g>
					<rect x="298.468" y="266.989" width="24.638" height="1"/>
				</g>
				<g>
					<rect x="298.468" y="269.825" width="24.638" height="1"/>
				</g>
				<g>
					<rect x="298.468" y="272.661" width="24.638" height="1"/>
				</g>
				<g>
					<rect x="298.468" y="275.498" width="7.637" height="1"/>
				</g>
			</g>
			<g style="opacity:0.3;">
				<g>
					<rect x="298.468" y="283.496" width="24.638" height="1"/>
				</g>
				<g>
					<rect x="298.468" y="286.333" width="24.638" height="1"/>
				</g>
				<g>
					<rect x="298.468" y="289.169" width="24.638" height="1"/>
				</g>
				<g>
					<rect x="298.468" y="292.004" width="19.638" height="1"/>
				</g>
			</g>
		</g>
	</g>
</g>
<g id="Speech_bubble_2">
	<g>
		<g>
			<path style="fill:#407BFF;" d="M364.57,88.863h-31.599c-6.001,0-10.865,4.864-10.865,10.865v30.709
				c0,6.001,4.865,10.865,10.865,10.865h17.59l5.347,11.471l1.961-11.471h6.701c6,0,10.865-4.865,10.865-10.865V99.728
				C375.435,93.727,370.571,88.863,364.57,88.863z"/>
		</g>
		<g>
			<path style="fill:#407BFF;" d="M356.34,116.378c1.256-3.269,4.343-5.124,6.896-4.144c2.553,0.981,3.605,4.426,2.349,7.695
				c-1.256,3.269-4.343,5.124-6.896,4.144C356.136,123.092,355.084,119.647,356.34,116.378z"/>
			<path style="fill:#407BFF;" d="M335.602,108.542l4.275-11.538c0,0,5.319,8.132,11.633,10.557l-2.2,5.729l-0.346,0.902
				l-2.204,5.737c-6.314-2.425-15.708,0.051-15.708,0.051L335.602,108.542z"/>
			<path style="opacity:0.8;fill:#FFFFFF;enable-background:new    ;" d="M356.34,116.378c1.256-3.269,4.343-5.124,6.896-4.144
				c2.553,0.981,3.605,4.426,2.349,7.695c-1.256,3.269-4.343,5.124-6.896,4.144C356.136,123.092,355.084,119.647,356.34,116.378z"/>
			<path style="opacity:0.8;fill:#FFFFFF;enable-background:new    ;" d="M335.602,108.542l4.275-11.538
				c0,0,5.319,8.132,11.633,10.557l-2.2,5.729l-0.346,0.902l-2.204,5.737c-6.314-2.425-15.708,0.051-15.708,0.051L335.602,108.542z"
				/>
			<path style="fill:#263238;" d="M357.639,122.585c0,0-3.328,6.699-6.937,9.49c-0.254,0.196-0.615,0.165-0.85-0.054l-3.947-3.674
				c-0.321-0.299-0.275-0.818,0.097-1.051c1.552-0.967,5.138-3.407,6.986-6.357C355.387,117.106,357.639,122.585,357.639,122.585z"
				/>
			<path style="fill:#FFFFFF;" d="M331.154,120.28c1.447,0.556,4.635-4.238,7.119-10.707c2.485-6.469,3.326-12.164,1.879-12.72
				c-1.447-0.556-4.635,4.238-7.119,10.707C330.548,114.029,329.707,119.724,331.154,120.28z"/>
			<path style="opacity:0.4;enable-background:new    ;" d="M339.85,99.615c-0.04,1.81-0.75,4.86-1.97,8.27
				c-0.13,0.35-0.27,0.72-0.41,1.09c-0.12,0.3-0.23,0.61-0.36,0.9c-1.32,3.28-2.8,5.99-3.98,7.44c-0.69,0.86-1.28,1.28-1.68,1.12
				c-1.16-0.44-0.33-5.4,1.85-11.07c2.17-5.67,4.88-9.91,6.03-9.47C339.7,98.035,339.87,98.655,339.85,99.615z"/>
			<path style="opacity:0.2;enable-background:new    ;" d="M339.85,99.615c-0.04,1.81-0.75,4.86-1.97,8.27
				c-0.13,0.35-0.27,0.72-0.41,1.09c-0.12,0.3-0.23,0.61-0.36,0.9c-1.32,3.28-2.8,5.99-3.98,7.44c0.04-2,0.89-5.52,2.37-9.35
				C336.91,104.275,338.55,101.195,339.85,99.615z"/>
			<path style="fill:#263238;" d="M359.392,125.106c0,0,1.292-1.229,3.226-6.265c2.093-5.45,1.812-6.851,1.812-6.851l-14.094-5.413
				c0,0,0.108,1.853-1.855,6.964c-1.949,5.074-3.183,6.152-3.183,6.152L359.392,125.106z"/>
			<path style="fill:#FFFFFF;" d="M337.113,109.878c0.123-0.294,0.241-0.601,0.359-0.908c0.142-0.37,0.28-0.73,0.407-1.086
				l-1.412-0.232c-0.322-0.051-0.576,0.151-0.69,0.449l-0.08,0.208c-0.114,0.298-0.061,0.618,0.212,0.795L337.113,109.878z"/>
			<path style="opacity:0.2;enable-background:new    ;" d="M337.113,109.878c0.123-0.294,0.241-0.601,0.359-0.908
				c0.142-0.37,0.28-0.73,0.407-1.086l-1.412-0.232c-0.322-0.051-0.576,0.151-0.69,0.449l-0.08,0.208
				c-0.114,0.298-0.061,0.618,0.212,0.795L337.113,109.878z"/>
			<path style="opacity:0.2;fill:#FFFFFF;enable-background:new    ;" d="M359.392,125.106c0,0,1.292-1.229,3.226-6.265
				c2.093-5.45,1.812-6.851,1.812-6.851l-14.094-5.413c0,0,0.108,1.853-1.855,6.964c-1.949,5.074-3.183,6.152-3.183,6.152
				L359.392,125.106z"/>
		</g>
	</g>
</g>
<g id="Character_2">
	<g id="_x3C_Group_x3E__22_">
		<polygon style="fill:#E4897B;" points="372.023,410.289 364.873,410.289 364.58,393.73 371.73,393.73 		"/>
		<path style="fill:#263238;" d="M364.941,409.461h7.809c0.292,0,0.54,0.203,0.596,0.488l1.252,6.356
			c0.13,0.659-0.386,1.283-1.061,1.272c-2.816-0.048-6.882-0.213-10.422-0.213c-4.14,0-7.721,0.226-12.575,0.226
			c-2.935,0-3.675-2.968-2.44-3.236c5.625-1.224,10.195-1.355,15.104-4.335C363.738,409.694,364.324,409.461,364.941,409.461z"/>
		<path style="fill:#407BFF;" d="M374.371,404.907h-12.653c-1.349-16.303-5.747-70.687-5.961-89.287
			c-0.171-14.899,0.92-45.044,1.579-61.537h24.691c-1.313,16.449-3.652,46.653-4.485,63.215
			C376.625,335.532,374.888,388.79,374.371,404.907z"/>
		<path style="opacity:0.7;fill:#FFFFFF;enable-background:new    ;" d="M355.755,315.62c0.22,18.6,4.61,72.98,5.96,89.29h12.66
			c0.38-12.16,1.47-45.48,2.38-68.92c0.29-7.63,0.56-14.21,0.79-18.69c0.5-9.97,1.55-24.88,2.58-38.76
			c0.69-9.18,1.37-17.91,1.9-24.46h-24.69C356.675,270.58,355.585,300.72,355.755,315.62z"/>
		<path style="fill:#407BFF;" d="M359.9,402.393c-0.056,0,0.556,5.029,0.556,5.029h14.735l0.512-4.488L359.9,402.393z"/>
		<path style="opacity:0.1;" d="M376.755,335.99c0.29-7.63,0.56-14.21,0.79-18.69c0.5-9.97,1.269-21.074,2.299-34.954
			c-2.795-0.771-7.352-2.796-8.242-4.346l3.234,4.34C374.303,292.977,374.921,317.915,376.755,335.99z"/>
		<polygon style="fill:#E4897B;" points="398.156,410.289 391.005,410.289 389.984,393.73 397.134,393.73 		"/>
		<path style="fill:#407BFF;" d="M399.871,404.907h-12.654c-0.723-5.708-2.025-16.08-3.456-27.954
			c-2.657-22.043-5.768-49.248-6.438-61.334c-0.414-7.526-0.685-18.953-0.854-30.539c-0.166-11.342-0.239-22.834-0.279-30.992
			l22.995-0.001c0.384,20.479,0.1,46.648-0.004,63.209C399.068,335.53,399.679,388.789,399.871,404.907z"/>
		<path style="opacity:0.7;fill:#FFFFFF;enable-background:new    ;" d="M399.871,404.907h-12.654
			c-0.723-5.708-2.025-16.08-3.456-27.954c-2.657-22.043-5.768-49.248-6.438-61.334c-0.414-7.526-0.685-18.953-0.854-30.539
			c-0.166-11.342-0.239-22.834-0.279-30.992l22.995-0.001c0.384,20.479,0.1,46.648-0.004,63.209
			C399.068,335.53,399.679,388.789,399.871,404.907z"/>
		<path style="fill:#407BFF;" d="M385.394,402.393c-0.056,0,0.777,5.029,0.777,5.029h14.735l0.314-4.488L385.394,402.393z"/>
		<path style="opacity:0.6;fill:#FFFFFF;enable-background:new    ;" d="M359.9,402.393c-0.056,0,0.556,5.029,0.556,5.029h14.735
			l0.512-4.488L359.9,402.393z"/>
		<path style="opacity:0.6;fill:#FFFFFF;enable-background:new    ;" d="M385.394,402.393c-0.056,0,0.777,5.029,0.777,5.029h14.735
			l0.314-4.488L385.394,402.393z"/>
		<path style="fill:#263238;" d="M391.037,409.461h7.809c0.292,0,0.549,0.203,0.618,0.488l1.531,6.356
			c0.159,0.659-0.33,1.283-1.005,1.272c-2.818-0.048-6.891-0.213-10.431-0.213c-4.14,0-7.711,0.226-12.565,0.226
			c-2.935,0-3.806-2.968-2.582-3.236c5.571-1.224,10.136-1.355,14.914-4.335C389.844,409.694,390.42,409.461,391.037,409.461z"/>
		<g>
			<path style="fill:#E4897B;" d="M322.942,208.598l-7.793-5.494l5.83-5.959c0,0,5.987,3.075,5.415,8.597L322.942,208.598z"/>
			<polygon style="fill:#E4897B;" points="312.087,197.046 317.496,193.645 320.979,197.145 315.149,203.104 			"/>
		</g>
		<path style="fill:#263238;" d="M361.315,194.41c-7.396,2.18-11.031,15.172-17.13,27.44l-17.752-17.643l-5.642,5.011
			c0,0,16.261,25.827,23.935,25.835c9.576,0.009,19.523-26.618,19.523-26.618L361.315,194.41z"/>
		<path style="opacity:0.1;fill:#FFFFFF;" d="M364.248,208.436c0,0-1.576,4.217-4.081,9.294c-2.418,4.923-5.716,10.658-9.284,14.129
			c-2.002,1.954-4.091,3.192-6.16,3.192c-7.669-0.01-23.927-25.832-23.927-25.832l5.638-5.009l17.756,17.64
			c6.093-12.273,9.729-25.261,17.128-27.437L364.248,208.436z"/>
		<path style="opacity:0.2;" d="M360.167,217.73c-2.418,4.923-5.716,10.658-9.284,14.129c0.387-11.77,6.16-23.259,6.16-23.259
			C358.735,211.54,359.722,214.654,360.167,217.73z"/>
		<path style="fill:#263238;" d="M403.194,196.399c-6.299,35.007-4.009,57.688-4.009,57.688s-29.809,0.681-41.844-0.001
			c-6.422-42.456,3.975-59.677,3.975-59.677s4.397-0.939,9.523-1.307c0.675-0.053,1.362-0.085,2.06-0.109
			c4.517-0.155,11.9,0.425,16.992,0.956c1.071,0.113,2.154,0.255,3.208,0.41C398.462,195.159,403.194,196.399,403.194,196.399z"/>
		<path style="opacity:0.1;fill:#FFFFFF;" d="M403.194,196.395c-0.783,4.342-1.431,8.501-1.973,12.437
			c-0.841,6.219-1.412,11.915-1.78,17.002c-0.116,1.538-0.213,3.027-0.29,4.449c-0.3,5.223-0.377,9.681-0.367,13.288
			c0.029,6.779,0.406,10.512,0.406,10.512s-29.813,0.687-41.854,0c-6.422-42.456,3.982-59.671,3.982-59.671s4.39-0.938,9.526-1.306
			c0.667-0.058,1.354-0.087,2.06-0.116c4.516-0.155,11.896,0.425,16.992,0.957c1.064,0.116,2.147,0.261,3.201,0.416
			C398.464,195.157,403.194,196.395,403.194,196.395z"/>
		<g>
			<path style="fill:#E4897B;" d="M387.439,193.611c-2.563,2.679-6.596,4.923-13.056,4.681c-4.952-0.193-5.638-3.308-4.777-5.01
				c3.008-0.619,4.371-1.934,4.787-3.598c0.455-1.77-0.165-3.917-1.035-5.996l8.356-7.041l1.412-1.189
				c-0.029,0.396-0.058,0.822-0.077,1.267c-0.078,1.46-0.087,3.153,0.019,4.903C383.339,186.232,384.431,191.252,387.439,193.611z"
				/>
			<path style="opacity:0.2;" d="M383.068,181.629c-1.557,3.182-4.284,7.021-8.675,8.056c0.455-1.77-0.165-3.917-1.035-5.996
				l8.356-7.041c0.445,0.01,0.89,0.039,1.335,0.077C382.971,178.186,382.961,179.878,383.068,181.629z"/>
		</g>
		<path style="fill:#FFFFFF;" d="M378.995,199.149c-1.518,0.856-3.031,1.725-4.543,2.605c-0.613,11.41-0.64,22.837-0.081,34.239
			c-0.759,1.276-1.511,2.561-2.255,3.854c-0.963-1.403-1.916-2.817-2.861-4.243c0.601-11.41,1.779-22.734,3.518-33.93
			c-0.52-1.003-1.035-2.012-1.546-3.025c1.502-0.55,3.006-1.091,4.511-1.625C376.822,197.738,377.907,198.447,378.995,199.149z"/>
		<path style="opacity:0.2;" d="M374.182,227.191c11.122,0.426,20.197,1.863,24.969,1.787c-0.3,5.222-0.377,10.985-0.367,14.592
			c-21.054-4.124-27.605-10.024-27.605-10.024L374.182,227.191z"/>
		<path style="opacity:0.2;" d="M401.221,208.832c-0.841,6.219-1.412,11.915-1.78,17.002c-4.004-8.162-1.044-17.95-1.044-17.95
			L401.221,208.832z"/>
		<g>
			<path style="fill:#263238;" d="M363.88,162.663c-1.23,2.802-1.381,8.818,2.885,7.323
				C371.031,168.492,365.995,157.847,363.88,162.663z"/>
			<path style="fill:#E4897B;" d="M384.362,168.869c-0.368,7.507-0.202,11.924-3.951,15.786c-5.64,5.809-14.962,2.395-16.849-5.093
				c-1.698-6.74-0.81-17.885,6.512-20.89C377.288,155.71,384.731,161.362,384.362,168.869z"/>
			<path style="fill:#263238;" d="M372.985,170.995c0.008,0.611-0.311,1.107-0.711,1.108c-0.4,0.001-0.731-0.494-0.738-1.105
				c-0.007-0.611,0.311-1.107,0.711-1.109C372.647,169.889,372.977,170.384,372.985,170.995z"/>
			<path style="fill:#263238;" d="M366.065,171.012c0.008,0.611-0.311,1.107-0.711,1.108c-0.4,0.001-0.73-0.494-0.738-1.105
				c-0.008-0.611,0.311-1.107,0.711-1.108C365.727,169.906,366.058,170.401,366.065,171.012z"/>
			<path style="fill:#DE5753;" d="M368.269,171.311c0,0-1.385,3.398-2.911,5.05c1.08,0.952,2.915,0.484,2.915,0.484L368.269,171.311
				z"/>
			<path style="fill:#263238;" d="M375.09,168.759c-0.124,0.017-0.254-0.031-0.337-0.139c-0.983-1.274-2.304-1.194-2.318-1.193
				c-0.198,0.014-0.372-0.134-0.388-0.332c-0.016-0.197,0.132-0.369,0.329-0.384c0.07-0.005,1.726-0.106,2.945,1.475
				c0.122,0.158,0.093,0.383-0.063,0.503C375.207,168.728,375.15,168.751,375.09,168.759z"/>
			<path style="fill:#263238;" d="M363.055,168.643c-0.067,0.009-0.138,0-0.205-0.032c-0.18-0.086-0.257-0.301-0.172-0.479
				c0.848-1.791,2.486-2.008,2.558-2.027c0.197-0.025,0.378,0.114,0.405,0.311c0.027,0.196-0.109,0.375-0.304,0.401
				c-0.069,0.006-1.328,0.189-2.009,1.627C363.275,168.556,363.17,168.627,363.055,168.643z"/>
			<path style="fill:#263238;" d="M372.57,162.852c0,0,2.071-1.477,3.011,0.115c0.94,1.591,0.885,5.85,0.885,5.85l0.417-0.752
				c0,0,2.66,9.48,6.526,7.091c3.867-2.389,9.546-12.01,0.516-16.918c0,0-0.959-2.29-6.927-3.416
				c-5.967-1.126-13.178,2.554-14.413,6.497c-1.235,3.943,0.497,6.139,0.497,6.139c0.324-1.429,1.146-2.338,1.146-2.338
				c0.137,1.276,1.488,1.814,1.488,1.814c-0.031-1.556,0.487-2.327,0.487-2.327c0.112,0.843,0.996,1.897,0.996,1.897
				c0.434-4.06,3.193-4.889,4.067-4.856C372.342,161.691,372.57,162.852,372.57,162.852z"/>
			<path style="fill:#E4897B;" d="M387.334,175.087c-0.576,1.939-1.997,3.422-3.477,4.18c-2.225,1.139-3.857-0.738-3.674-3.104
				c0.165-2.13,1.521-5.289,3.964-5.447C386.554,170.56,387.993,172.87,387.334,175.087z"/>
			<g>
				<path style="fill:#263238;" d="M368.511,179.361c0.741,0.7,1.779,2.152,1.779,2.152c0.149-0.071,0.297-0.141,0.442-0.219
					c1.99-1.005,2.582-2.129,2.634-3.07c0.027-0.515-0.115-0.978-0.277-1.333c-0.183-0.412-0.407-0.664-0.407-0.664
					c-0.737,1.163-2.52,2.243-3.497,2.78C368.777,179.237,368.511,179.361,368.511,179.361z"/>
				<path style="fill:#FFFFFF;" d="M369.184,179.008l0.541,0.621c1.873-0.951,3.063-1.872,3.363-2.737
					c-0.183-0.412-0.407-0.664-0.407-0.664C371.944,177.391,370.161,178.471,369.184,179.008z"/>
				<path style="fill:#A24E3F;" d="M370.732,181.294c1.99-1.005,2.582-2.129,2.634-3.07c-0.665,0.368-1.426,0.887-1.989,1.554
					C370.944,180.287,370.779,180.818,370.732,181.294z"/>
			</g>
		</g>
		<path style="fill:#263238;" d="M386.235,190.553c0,0-2.341,3.011-10.785,5.846c0,0-2.135-2.058-2.466-5.463l-4.474,2.033
			c0,0-1.362,4.095,0.673,7.031l6.213-2.779l4.773,4.055c0,0,7.769-4.939,9.175-7.384L386.235,190.553z"/>
		<g>
			<path style="fill:#263238;" d="M372.819,244.074h-21.307c-0.821,0-1.544-0.669-1.616-1.493l-2.967-28.279
				c-0.071-0.825,0.536-1.493,1.357-1.493h21.307c0.821,0,1.544,0.669,1.616,1.493l2.967,28.279
				C374.248,243.406,373.64,244.074,372.819,244.074z"/>
			<path style="opacity:0.6;fill:#FFFFFF;" d="M372.819,244.074h-21.307c-0.821,0-1.544-0.669-1.616-1.493l-2.967-28.279
				c-0.071-0.825,0.536-1.493,1.357-1.493h21.307c0.821,0,1.544,0.669,1.616,1.493l2.967,28.279
				C374.248,243.406,373.64,244.074,372.819,244.074z"/>
			<path style="opacity:0.2;fill:#FFFFFF;" d="M371.929,244.074h-20.417c-0.821,0-1.544-0.669-1.616-1.493l-2.967-28.279
				c-0.071-0.825,0.536-1.493,1.357-1.493h20.417c0.821,0,1.544,0.669,1.616,1.493l2.967,28.279
				C373.357,243.406,372.75,244.074,371.929,244.074z"/>
			<path style="fill:#263238;" d="M359.505,226.129c-1.271,0-2.212,1.035-2.102,2.312c0.11,1.277,1.23,2.312,2.501,2.312
				c1.271,0,2.212-1.035,2.102-2.312C360.736,228.441,359.616,227.406,359.505,226.129z"/>
			<path style="opacity:0.3;" d="M364.116,215.053h-11.254c-0.55,0-1.073-0.337-1.321-0.85l-0.674-1.395h14.856l-0.433,1.395
				C365.131,214.717,364.666,215.053,364.116,215.053z"/>
		</g>
		<path style="fill:#E4897B;" d="M366.902,225.676l-4.921-0.404l0.205,6.552l4.145,2.169l9.495-0.874l0.775-4.412
			C373.453,224.133,366.902,225.676,366.902,225.676z"/>
		<path style="fill:#263238;" d="M398.157,198.465c-5.023,6.343,0.49,18.752,3.123,32.197l-24.825-3.184l-1.424,7.41
			c0,0,28.627,10.583,34.718,5.916c7.601-5.824,2.676-27-1.258-37.432c-1.909-5.063-5.296-6.975-5.296-6.975
			S399.997,196.141,398.157,198.465z"/>
		<path style="opacity:0.1;fill:#FFFFFF;" d="M398.157,198.465c-5.023,6.343,0.49,18.752,3.123,32.197l-24.825-3.184l-1.424,7.41
			c0,0,28.627,10.583,34.718,5.916c7.601-5.824,2.676-27-1.258-37.432c-1.909-5.063-5.296-6.975-5.296-6.975
			S399.997,196.141,398.157,198.465z"/>
		<path style="fill:#263238;" d="M383.815,255.298c5.221-0.064,10.442-0.218,15.659-0.464c0.042,0.891,0.084,1.782,0.126,2.674
			c-5.259,0.248-10.522,0.403-15.785,0.467V255.298z"/>
		<path style="fill:#263238;" d="M363.007,257.749c-2.014-0.068-4.028-0.146-6.041-0.241c0.042-0.891,0.084-1.783,0.126-2.674
			c1.971,0.093,3.943,0.17,5.915,0.236V257.749z"/>
		<path style="fill:#263238;" d="M363.9,255.099c6.211,0.197,12.425,0.268,18.638,0.209v2.677
			c-6.213,0.058-12.427-0.012-18.638-0.208V255.099z"/>
		<path style="fill:#FFFFFF;" d="M369.166,258.238l4.708,0.097c0.138,0.003,0.251-0.108,0.251-0.246v-2.749
			c0-0.134-0.107-0.243-0.241-0.246l-4.708-0.097c-0.138-0.003-0.251,0.108-0.251,0.246v2.749
			C368.925,258.126,369.032,258.235,369.166,258.238z"/>
	</g>
</g>
<g id="Speech_bubble_1">
	<g>
		<g>
			
				<ellipse transform="matrix(0.7071 -0.7071 0.7071 0.7071 -105.6837 134.7395)" style="fill:#407BFF;" cx="109.803" cy="194.941" rx="17.955" ry="17.955"/>
		</g>
		<g>
			<path style="fill:#FFFFFF;" d="M112.46,191.129c0-1.511-1.295-2.536-3.372-2.536c-1.997,0-3.453,0.755-4.397,2.077l-2.617-1.7
				c1.511-2.05,3.939-3.292,7.311-3.292c3.965,0,6.609,1.808,6.609,4.91c0,4.397-4.613,4.802-4.613,7.985h-3.426
				C107.954,194.582,112.46,193.827,112.46,191.129z M107.522,202.918c0-1.16,0.891-2.077,2.158-2.077
				c1.241,0,2.131,0.917,2.131,2.077c0,1.16-0.89,2.105-2.131,2.105C108.413,205.023,107.522,204.078,107.522,202.918z"/>
		</g>
		<g>
			<polygon style="fill:#407BFF;" points="109.803,207.766 107.346,211.094 109.803,218.421 112.26,211.094 			"/>
		</g>
	</g>
</g>
<g id="Character_1">
	<g>
		<g>
			<polygon style="fill:#263238;" points="125.035,350.418 126.833,417.587 124.294,417.587 121.332,350.418 			"/>
			<polygon style="fill:#263238;" points="116.538,351.946 93.809,351.946 86.615,417.587 83.67,417.587 90.3,347.28 
				116.538,347.978 			"/>
			<polygon style="fill:#263238;" points="118.196,347.978 150.404,347.978 152.061,347.978 159.141,417.587 157.54,417.587 
				157.227,415.062 157.483,417.587 155.883,417.587 147.745,352.107 121.261,352.107 121.05,417.587 119.393,417.587 
				119.265,417.587 117.608,417.587 116.538,347.978 			"/>
			<polygon style="opacity:0.2;fill:#FFFFFF;" points="119.265,417.587 118.196,347.978 152.061,347.978 159.141,417.587 
				157.54,417.587 149.402,352.107 121.262,352.107 121.05,417.587 			"/>
			<polygon style="opacity:0.2;fill:#FFFFFF;" points="93.809,351.946 91.957,351.946 84.94,417.587 86.615,417.587 			"/>
			<path style="fill:#263238;" d="M129.047,337.61l-7.131-59.4c-0.384-3.634-3.088-6.368-6.297-6.368H82.424
				c-0.833,0-1.509,0.771-1.509,1.721V335.7c0,7.302,5.189,13.221,11.59,13.221h37.024h29.37c0.401,0,0.726-0.371,0.726-0.828v0
				c0-3.272-2.325-5.925-5.193-5.925h-20.877C131.257,342.169,129.322,340.211,129.047,337.61z"/>
			<path style="opacity:0.5;fill:#FFFFFF;" d="M80.915,273.564v62.129c0,7.31,5.189,13.23,11.588,13.23h66.392
				c0.403,0,0.736-0.38,0.736-0.83c0-1.64-0.587-3.12-1.525-4.19c-0.938-1.08-2.244-1.74-3.673-1.74h-20.88
				c-0.465,0-0.921-0.08-1.35-0.24c-1.665-0.59-2.936-2.25-3.156-4.32l-7.135-59.39c-0.377-3.64-3.085-6.37-6.294-6.37H82.423
				c-0.561,0-1.052,0.35-1.306,0.87C80.994,272.964,80.915,273.244,80.915,273.564z"/>
			<path style="opacity:0.3;fill:#FFFFFF;" d="M87.051,271.844v56.859c0,7.3,5.189,13.22,11.588,13.22h33.564
				c-1.665-0.59-2.936-2.25-3.156-4.32l-7.135-59.39c-0.377-3.64-3.085-6.37-6.294-6.37H87.051z"/>
		</g>
		<g>
			<path style="fill:#263238;" d="M129.344,312.294c-0.444-1.809-3.064-6.792-3.064-6.792l-28.4,1.56
				c0,0-10.087,28.107,2.069,35.319c3.673,2.179,9.734,3.041,16.406,3.183c7.741,0.165,14.121-6.039,14.121-13.782
				C130.475,331.782,130.508,317.033,129.344,312.294z"/>
			<path style="fill:#263238;" d="M103.925,332.679v11.343c10.109,2.916,31.092,1.806,43.565,0.787
				c5.617-0.458,9.936-5.15,9.936-10.786v-9.307c0-3.086-1.908-5.844-4.796-6.931c-6.047-2.274-17.05-5.664-28.561-5.486
				C112.908,312.473,103.925,321.517,103.925,332.679z"/>
			<path style="fill:#FFB573;" d="M156.363,365.483c-3.677,9.936-7.925,22.375-12.459,38.077c-0.089,0.286-0.168,0.572-0.246,0.858
				c-0.089,0.306-0.178,0.601-0.266,0.907l-4.682-1.143l-1.764-0.434c0,0,0.069-0.69,0.217-1.922
				c0.029-0.256,0.059-0.532,0.089-0.828v-0.01c1.261-10.951,6.121-51.147,10.941-59.496c0,0-5.461,1.015-9.601,0.315
				c-2.987-0.503-6.604-21.153-6.604-21.153s7.609-2.188,15.416-2.188h0.109c0,0,15.194,3.582,18.121,7.879
				C169.231,331.619,165.905,339.698,156.363,365.483z"/>
			<g>
				<path style="fill:#407BFF;" d="M150.301,417.587l-10.971-4.84l-3.47-3.874l-1.074,1.459l-1.311-0.572
					c-0.611-4.869,1.755-7.146,2.997-8.181c0.089-0.079,0.217-0.168,0.365-0.286c0.049-0.039,0.099-0.079,0.148-0.109
					c0.02-0.01,0.04-0.03,0.059-0.039c0.049-0.039,0.109-0.079,0.168-0.128c0.01-0.01,0.02-0.01,0.04-0.02v-0.01
					c0.029-0.02,0.059-0.04,0.098-0.059l6.023,2.661c0,0,0.098,0.315,0.286,0.828c0.601,1.695,2.09,5.559,3.736,7.619
					c0.069,0.089,0.138,0.178,0.207,0.256c0.197,0.236,0.404,0.444,0.611,0.611C152.825,416.611,150.301,417.587,150.301,417.587z"
					/>
				<path style="fill:#FFB573;" d="M147.601,412.294c-1.715,0.67-4.14-1.025-5.983-3.243c-1.035-1.252-2.031-3.253-2.908-4.869
					c-0.572-1.045-1.094-1.932-1.548-2.356c-0.256-0.227-0.493-0.325-0.7-0.227c0,0,0.01-0.01,0.01-0.02
					c0.089-0.079,0.217-0.168,0.365-0.286c0.039-0.03,0.089-0.069,0.148-0.109c0.02-0.01,0.04-0.03,0.059-0.039
					c0.049-0.039,0.109-0.079,0.168-0.128c0.01-0.01,0.02-0.01,0.04-0.02v-0.01c0.029-0.02,0.059-0.04,0.098-0.059
					c0.631-0.473,1.331-0.956,1.331-0.956l4.84,2.139c0,0,0.138,0.572,0.384,1.449c0.631,2.238,1.961,6.496,3.489,8.477
					C147.463,412.126,147.532,412.215,147.601,412.294z"/>
			</g>
			<path style="opacity:0.1;enable-background:new    ;" d="M156.363,365.483c-3.677,9.936-7.925,22.375-12.459,38.077
				c0.631,2.238,1.961,6.496,3.489,8.477c0.069,0.089,0.138,0.178,0.207,0.256c0.197,0.236,0.404,0.444,0.611,0.611
				c4.613,3.706,2.09,4.682,2.09,4.682l-10.971-4.84l-3.47-3.874l-1.074,1.459l-1.311-0.572c-0.611-4.869,1.755-7.146,2.997-8.181
				c0.089-0.079,0.217-0.168,0.365-0.286c0.049-0.039,0.099-0.079,0.148-0.109c0.02-0.01,0.04-0.03,0.059-0.039
				c0.049-0.039,0.109-0.079,0.168-0.128c0.01-0.01,0.02-0.01,0.04-0.02v-0.01c1.261-10.951,6.121-51.147,10.941-59.496
				c0,0-5.461,1.015-9.601,0.315c-2.987-0.503-6.604-21.153-6.604-21.153s7.609-2.188,15.416-2.188h0.109
				c0,0-1.843,0.177-4.347,3.322c0,0,10.212,1.902,12.981,7.304C157.26,331.28,157.033,347.238,156.363,365.483z"/>
			<path style="fill:#FFB573;" d="M131.985,320.658c0,0,17.48,2.74,20.406,7.031c5.036,7.385-4.037,21.905-20.582,79.829
				l-6.452-1.585c0,0,3.721-52.558,9.304-62.247c0,0-7.457,1.007-11.596,0.313C117.747,343.106,114.385,325.363,131.985,320.658z"/>
			<g>
				<path style="fill:#407BFF;" d="M124.307,417.22l1.43-0.002l0.397-1.766l4.734,2.137h11.995c0,0,1.908-1.918-3.805-3.446
					c-0.26-0.07-0.53-0.17-0.809-0.31c-3.046-1.428-7.381-6.252-7.381-6.252h-6.581c0,0-0.23,0.329-0.539,0.949
					C123.028,409.98,121.786,413.019,124.307,417.22z"/>
				<path style="fill:#FFB573;" d="M123.747,408.532c0,0.01,0,0.02,0,0.02c0.869-0.969,4.824,3.286,7.72,4.734
					c2.587,1.288,5.493,1.857,6.781,0.549c-3.046-1.428-7.836-7.664-7.836-7.664h-5.293
					C125.12,406.171,124.057,407.913,123.747,408.532z"/>
			</g>
			<g>
				<path style="fill:#263238;" d="M164.172,317.168v2.383c0,0.612-0.72,0.862-1.324,0.862H115.23c-0.612,0-1.347-0.25-1.347-0.862
					v-2.383H164.172z"/>
				<path style="opacity:0.4;fill:#FFFFFF;enable-background:new    ;" d="M164.172,317.168v2.383c0,0.612-0.72,0.862-1.324,0.862
					H115.23c-0.612,0-1.347-0.25-1.347-0.862v-2.383H164.172z"/>
				<path style="opacity:0.2;enable-background:new    ;" d="M164.172,317.168v2.383c0,0.612-0.72,0.862-1.324,0.862h-31.407
					c-0.611,0-1.336-0.25-1.336-0.862v-2.383H164.172z"/>
				<path style="fill:#263238;" d="M172.139,292.428l-5.668,25.712c-0.185,0.847-1.009,1.461-1.841,1.461h-30.965
					c-0.825,0-1.354-0.769-1.163-1.616l5.662-25.516c0.191-0.84,1.008-1.258,1.84-1.258h30.966
					C171.801,291.212,172.324,291.588,172.139,292.428z"/>
				<path style="opacity:0.4;fill:#FFFFFF;enable-background:new    ;" d="M172.139,292.428l-5.668,25.712
					c-0.185,0.847-1.009,1.461-1.841,1.461h-29.913c-0.832,0-1.355-0.769-1.171-1.616l5.669-25.516
					c0.184-0.84,1.008-1.258,1.84-1.258h29.913C171.801,291.212,172.324,291.588,172.139,292.428z"/>
				<path style="opacity:0.2;enable-background:new    ;" d="M156.872,305.496v0.008c0,2.201-2.36,3.99-4.09,3.99
					c-1.73,0-2.756-1.789-2.263-3.99c0.493-2.158,2.215-3.917,3.908-3.983c-0.493,2.201,0.564,3.983,2.286,3.983
					C156.75,305.504,156.872,305.504,156.872,305.496z"/>
			</g>
			<g>
				<path style="fill:#E9B376;" d="M128.653,263.42c2.996,2.664,6.169,5.395,9.296,7.89c1.579,1.235,3.162,2.441,4.731,3.451
					c0.781,0.494,1.551,0.961,2.241,1.297l0.488,0.226l0.142,0.061l0.07,0.036l0.018,0.009l-0.104-0.024
					c-0.072-0.015-0.145-0.025-0.218-0.032l-0.31-0.017c-0.134-0.002-0.268,0.006-0.399,0.025c-0.208,0.02-0.548,0.084-0.802,0.181
					c-0.186,0.064-0.728,0.294-1.099,0.607c-0.372,0.304-0.714,0.683-0.973,1.154c-0.121,0.21-0.235,0.517-0.282,0.664
					c-0.053,0.156-0.094,0.32-0.123,0.485c-0.029,0.165-0.046,0.333-0.05,0.497l-0.001,0.281c0.006,0.163,0.029,0.337,0.061,0.486
					c0.017,0.129,0.085,0.328,0.108,0.387c0.014,0.046,0.053,0.123,0.062,0.138c0.005,0.009,0.011,0.016,0.019,0.023l-0.017-0.044
					c-0.069-0.166-0.311-0.551-0.547-0.904c-0.247-0.366-0.525-0.751-0.818-1.14c-0.587-0.779-1.222-1.57-1.873-2.357
					c-1.286-1.595-2.651-3.17-4.004-4.765c-2.732-3.165-5.485-6.38-8.197-9.605l-0.012-0.014c-0.798-0.95-0.676-2.367,0.274-3.165
					c0.821-0.691,1.994-0.691,2.812-0.064c3.406,2.609,6.693,5.313,9.884,8.18c1.605,1.424,3.169,2.898,4.733,4.425
					c0.773,0.774,1.542,1.563,2.313,2.405c0.385,0.422,0.771,0.859,1.164,1.334c0.399,0.491,0.783,0.961,1.239,1.713l0.175,0.303
					l0.192,0.379c0.065,0.135,0.146,0.337,0.21,0.505c0.07,0.182,0.162,0.512,0.216,0.767c0.039,0.214,0.068,0.454,0.08,0.683
					c0.005,0.131,0.012,0.198,0.005,0.38c-0.01,0.197-0.031,0.397-0.066,0.595c-0.034,0.198-0.082,0.394-0.14,0.583
					c-0.051,0.18-0.191,0.512-0.326,0.751c-0.292,0.528-0.664,0.967-1.098,1.301c-0.426,0.348-1.018,0.627-1.272,0.698
					c-0.318,0.112-0.721,0.198-0.994,0.226c-0.197,0.019-0.398,0.028-0.597,0.026l-0.298-0.01l-0.208-0.021l-0.414-0.061
					l-0.202-0.039l-0.077-0.02l-0.309-0.081l-0.615-0.172c-0.33-0.112-0.675-0.223-0.991-0.343c-1.26-0.482-2.357-1.016-3.398-1.591
					c-2.065-1.151-3.947-2.378-5.747-3.681c-3.619-2.601-6.891-5.358-10.118-8.416c-1.808-1.714-1.884-4.568-0.171-6.376
					c1.679-1.771,4.453-1.88,6.264-0.273L128.653,263.42z"/>
			</g>
			<path style="fill:#407BFF;" d="M137.556,269.632c-0.331,6.403-4.965,13.048-4.965,13.048l-1.115-0.615l-5.534-3.049
				c0,0-0.118-0.292-0.311-0.803c-0.189-0.465-0.431-1.114-0.73-1.899c-1.554-4.12-4.374-11.847-4.915-15.108
				C126.478,260.436,129.661,263.292,137.556,269.632z"/>
			<path style="opacity:0.7;fill:#FFFFFF;enable-background:new    ;" d="M137.556,269.632c-0.331,6.403-4.965,13.048-4.965,13.048
				l-1.115-0.615l-5.534-3.049c0,0-0.118-0.292-0.311-0.803c-0.189-0.465-0.431-1.114-0.73-1.899
				c-1.554-4.12-4.374-11.847-4.915-15.108C126.478,260.436,129.661,263.292,137.556,269.632z"/>
			<path style="opacity:0.2;" d="M131.477,282.065l-5.534-3.049c0,0-0.118-0.292-0.311-0.803c0.048-1.473,0.208-3.088,0.488-4.834
				C126.119,273.378,130.8,276.121,131.477,282.065z"/>
			<path style="fill:#407BFF;" d="M92.742,270.463c0.03,0.16,0.06,0.31,0.1,0.47c1.39,5.59,2.42,10.36,3.17,14.52
				c0.94,5.2,1.43,9.45,1.6,13.16c0.15,3.46,0.04,6.46-0.26,9.3l29.76,0.99c1.17-9.67,1.76-15.47,2.19-21.37
				c0.64-6.97,0.34-9.21,0.35-12.14c0.01-5.25-3.68-11.42-8.91-12.33c-1.46-0.25-2.97-0.49-4.43-0.67
				c-0.25-0.03-0.52-0.06-0.79-0.09c-4.46-0.45-11.23-0.44-16.45,0.81C96.122,263.813,92.052,266.323,92.742,270.463z"/>
			<path style="opacity:0.7;fill:#FFFFFF;enable-background:new    ;" d="M92.742,270.463c0.03,0.16,0.06,0.31,0.1,0.47
				c1.39,5.59,2.42,10.36,3.17,14.52c0.94,5.2,1.43,9.45,1.6,13.16c0.15,3.46,0.04,6.46-0.26,9.3l29.76,0.99
				c1.17-9.67,1.76-15.47,2.19-21.37c0.64-6.97,0.34-9.21,0.35-12.14c0.01-5.25-3.68-11.42-8.91-12.33
				c-1.46-0.25-2.97-0.49-4.43-0.67c-0.25-0.03-0.52-0.06-0.79-0.09c-4.46-0.45-11.23-0.44-16.45,0.81
				C96.122,263.813,92.052,266.323,92.742,270.463z"/>
			<path style="opacity:0.2;" d="M97.612,298.612c-0.173-3.714-0.665-7.962-1.599-13.158c3.325-4.659,6.522-8.551,6.522-8.551
				S109.54,291.295,97.612,298.612z"/>
			<g>
				<path style="fill:#E9B376;" d="M100.553,276.345l-0.9,11.462c-0.132,1.904-0.239,3.794-0.314,5.65
					c-0.061,1.831-0.08,3.734,0.065,5.141l-0.22-0.773c-0.192-0.359-0.063-0.028,0.146,0.206c0.223,0.273,0.529,0.599,0.862,0.93
					c0.675,0.665,1.473,1.349,2.303,2.016c1.669,1.334,3.452,2.665,5.276,3.951c1.817,1.301,3.676,2.577,5.542,3.855l5.61,3.832
					l0.014,0.009c1.025,0.7,1.288,2.099,0.588,3.124c-0.602,0.881-1.72,1.198-2.673,0.826c-2.185-0.853-4.28-1.799-6.398-2.759
					c-2.103-0.979-4.183-2.015-6.25-3.114c-2.058-1.118-4.114-2.267-6.144-3.61c-1.018-0.674-2.034-1.382-3.074-2.223
					c-0.522-0.423-1.047-0.883-1.594-1.453c-0.546-0.617-1.149-1.186-1.783-2.604c-0.081-0.181-0.14-0.366-0.177-0.553l-0.043-0.221
					c-0.48-2.462-0.589-4.489-0.657-6.569c-0.067-2.059-0.065-4.083-0.003-6.089c0.049-2.007,0.155-4.002,0.295-5.989
					c0.163-1.993,0.303-3.952,0.557-5.971c0.311-2.472,2.567-4.224,5.04-3.913c2.398,0.302,4.119,2.434,3.935,4.819L100.553,276.345
					z"/>
			</g>
			<path style="fill:#EBB376;" d="M126.383,311.487l-1.9-1.151c-0.715-0.433-1.594-0.493-2.361-0.163l-3.585,1.545
				c-1.433,0.618-2.479,1.891-2.805,3.418l-0.202,0.945c3.021,2.124,7.851,2.193,7.851,2.193l1.375,0.172
				c1.224,0.153,2.294-0.639,2.458-1.82l0.377-2.719C127.719,312.969,127.24,312.006,126.383,311.487z"/>
			<path style="fill:#407BFF;" d="M99.381,263.131c-5.987,1.385-8.215,6.204-9.551,16.634c2.667,3.052,11.692,4.258,11.692,4.258
				S104.919,268.376,99.381,263.131z"/>
			<path style="fill:#EBB376;" d="M101.051,262.709c-0.678,0.095,1.728,7.367,11.955,8.595c10.227,1.228,8.703-7.967,7.72-10.221
				C120.727,261.082,108.426,261.672,101.051,262.709z"/>
			<path style="fill:#263238;" d="M101.368,229.225c0,0,5.242-6.873,16.066-4.445c10.825,2.428,11.923,21.314,7.129,28.583
				c0,0-12.146,0.299-24.805,4.391c0,0-6.205-13.245-4.345-21.483C97.273,228.033,101.368,229.225,101.368,229.225z"/>
			<g>
				<path style="fill:#EBB376;" d="M105.029,247.84c1.033,4.386,2.215,12.4-0.706,15.208c0,0,4.138-0.483,12.703,5.213
					c2.651-3.548,0.809-4.767,0.809-4.767c-4.896-1.32-4.921-4.922-4.216-8.281L105.029,247.84z"/>
				<path style="opacity:0.2;" d="M108.531,250.849l5.083,4.361c-0.17,0.795-0.293,1.602-0.317,2.391
					c-1.863-0.329-4.492-2.451-4.769-4.402C108.39,252.225,108.392,251.295,108.531,250.849z"/>
			</g>
			<g>
				<path style="fill:#EBB376;" d="M101.605,238.992c1.088,7.064,1.398,10.068,5.293,13.567c5.858,5.264,14.225,2.857,15.252-4.274
					c0.925-6.418-1.009-16.891-8.167-19.448C106.932,226.319,100.517,231.928,101.605,238.992z"/>
				<path style="fill:#263238;" d="M110.532,240.457c0.066,0.597,0.428,1.068,0.809,1.052c0.381-0.016,0.637-0.512,0.571-1.109
					c-0.066-0.597-0.428-1.068-0.809-1.053C110.722,239.364,110.466,239.86,110.532,240.457z"/>
				<path style="fill:#263238;" d="M117.946,239.927c0.066,0.597,0.428,1.068,0.809,1.052c0.381-0.016,0.637-0.512,0.572-1.109
					c-0.066-0.597-0.428-1.068-0.809-1.052C118.136,238.834,117.88,239.331,117.946,239.927z"/>
				<path style="fill:#263238;" d="M118.352,238.859l1.355-0.47C119.708,238.389,119.112,239.537,118.352,238.859z"/>
				<path style="fill:#D58745;" d="M115.824,241.331c0,0,1.272,2.529,2.498,3.724c-0.689,0.767-2.035,0.484-2.035,0.484
					L115.824,241.331z"/>
				<path style="fill:#263238;" d="M109.024,236.762c0.091,0.005,0.181-0.027,0.248-0.097c1.032-1.081,2.286-0.801,2.301-0.798
					c0.186,0.042,0.364-0.073,0.395-0.261c0.03-0.189-0.098-0.377-0.286-0.422c-0.066-0.015-1.64-0.368-2.92,0.974
					c-0.127,0.134-0.117,0.356,0.024,0.496C108.853,236.721,108.939,236.757,109.024,236.762z"/>
				<path style="fill:#263238;" d="M120.557,235.875c0.085,0.015,0.174-0.001,0.247-0.053c0.15-0.107,0.178-0.325,0.062-0.486
					c-1.167-1.616-2.754-1.621-2.822-1.62c-0.19,0.002-0.331,0.16-0.316,0.354c0.015,0.193,0.181,0.349,0.37,0.348
					c0.062-0.001,1.294,0.021,2.222,1.306C120.38,235.807,120.467,235.859,120.557,235.875z"/>
				<path style="fill:#263238;" d="M110.938,239.388l1.355-0.47C112.294,238.918,111.698,240.067,110.938,239.388z"/>
				<path style="fill:#263238;" d="M103.432,243.128c0,0,5.13-4.753,3.33-11.392c0,0,9.485-4.674,14.165,4.894
					c0,0,0.129-8.522-9.231-9.422c-9.36-0.899-19.239,12.504-8.013,21.12L103.432,243.128z"/>
				<path style="fill:#EBB376;" d="M99.812,244.914c0.929,1.405,2.349,2.236,3.618,2.473c1.909,0.356,2.593-1.55,1.835-3.395
					c-0.682-1.66-2.497-3.846-4.304-3.364C99.179,241.104,98.75,243.307,99.812,244.914z"/>
				
					<path style="fill:none;stroke:#263238;stroke-width:0.4056;stroke-linecap:round;stroke-linejoin:round;stroke-miterlimit:10;" d="
					M106.02,231.808c0,0,11.647-3.737,16.309,8.684"/>
				
					<path style="fill:none;stroke:#263238;stroke-width:0.4693;stroke-linecap:round;stroke-linejoin:round;stroke-miterlimit:10;" d="
					M115.801,248.33c0,0-3.21-0.034-4.373-2.077"/>
			</g>
			
				<path style="fill:none;stroke:#263238;stroke-width:0.4693;stroke-linecap:round;stroke-linejoin:round;stroke-miterlimit:10;" d="
				M104.323,262.279c0,0,3.728,9.354,13.522,18.408c0,0,3.14-11.467-1.82-19.418"/>
			<path style="fill:#FFFFFF;" d="M118.134,280.474l0.841,0.906c0.151,0.162,0.172,0.406,0.052,0.592l-0.686,1.065
				c-0.166,0.257-0.525,0.298-0.744,0.086l-0.784-0.759c-0.154-0.149-0.192-0.381-0.093-0.571l0.628-1.212
				C117.503,280.283,117.906,280.228,118.134,280.474z"/>
			<path style="opacity:0.7;fill:#FFFFFF;enable-background:new    ;" d="M99.381,263.131c-5.987,1.385-8.215,6.204-9.551,16.634
				c2.667,3.052,11.692,4.258,11.692,4.258S104.919,268.376,99.381,263.131z"/>
			<g>
				<path style="fill:#EBB376;" d="M130.847,261.14l-2.424-6.199l-5.044,5.391c0,0,2.496,5.4,5.225,3.997L130.847,261.14z"/>
				<polygon style="fill:#EBB376;" points="123.178,250.946 120.416,257.053 123.379,260.332 128.423,254.941 				"/>
			</g>
			<path style="fill:#E9B376;" d="M138.351,282.101c1.041,0.576,2.139,1.109,3.398,1.591c0.316,0.12,0.661,0.231,0.991,0.343
				l0.615,0.172l0.309,0.081l0.077,0.02l0.202,0.039l0.414,0.061l0.208,0.021l0.298,0.01c0.2,0.001,0.4-0.007,0.597-0.026
				c0.273-0.028,0.676-0.114,0.994-0.226c0.254-0.071,0.846-0.35,1.272-0.698c0.434-0.334,0.807-0.773,1.098-1.301
				c0.135-0.24,0.275-0.572,0.326-0.751c0.058-0.189,0.105-0.385,0.14-0.583c0.035-0.198,0.057-0.398,0.066-0.595
				c0.007-0.182,0-0.249-0.005-0.38c-0.012-0.229-0.041-0.469-0.08-0.683c-0.054-0.255-0.146-0.586-0.216-0.768
				c-0.064-0.168-0.145-0.371-0.21-0.505l-0.192-0.379l-0.175-0.303c-0.456-0.752-0.839-1.222-1.238-1.713
				c-0.393-0.475-0.779-0.912-1.165-1.334c-0.771-0.842-1.54-1.631-2.313-2.405c-1.565-1.527-3.128-3.001-4.733-4.425
				c-3.191-2.867-6.478-5.571-9.884-8.18c-0.985-0.754-2.395-0.568-3.149,0.417c-0.653,0.852-0.601,2.022,0.063,2.811l0.013,0.015
				c2.712,3.225,5.464,6.44,8.197,9.605c1.353,1.595,2.718,3.17,4.004,4.765c0.651,0.788,1.286,1.579,1.873,2.357
				c0.293,0.388,0.571,0.774,0.818,1.14c0.236,0.353,0.478,0.738,0.547,0.904l0.017,0.044c-0.008-0.006-0.015-0.014-0.019-0.023
				c-0.009-0.015-0.048-0.091-0.062-0.138c-0.023-0.058-0.09-0.258-0.108-0.387c-0.032-0.149-0.055-0.323-0.061-0.486l0.001-0.281
				c0.004-0.164,0.021-0.332,0.05-0.497c0.029-0.165,0.071-0.329,0.123-0.485c0.047-0.147,0.161-0.454,0.282-0.664
				c0.259-0.471,0.601-0.849,0.973-1.154c0.371-0.313,0.914-0.543,1.099-0.607c0.254-0.097,0.594-0.162,0.802-0.181
				c0.131-0.018,0.266-0.027,0.399-0.025l0.31,0.017c0.073,0.006,0.146,0.017,0.218,0.032l0.104,0.024l-0.018-0.009l-0.07-0.036
				l-0.142-0.061l-0.488-0.226c-0.69-0.335-1.46-0.803-2.241-1.297C141.111,273.75,136.286,280.95,138.351,282.101z"/>
		</g>
	</g>
</g>
</svg>
